<svg width="12" height="12" viewBox="0 0 12 12" fill="none" xmlns="http://www.w3.org/2000/svg">
<path d="M10.479 7.66253C10.581 7.41953 10.2895 7.21253 10.045 7.32053C9.55628 7.53505 9.02823 7.6454 8.4945 7.64453C6.402 7.64453 4.706 5.98253 4.706 3.93203C4.70523 3.2397 4.90193 2.56151 5.273 1.97703C5.415 1.75303 5.2445 1.44303 4.9845 1.50903C2.98 2.02053 1.5 3.80653 1.5 5.93103C1.5 8.45453 3.5875 10.5 6.163 10.5C8.113 10.5 9.783 9.32753 10.479 7.66253Z" fill="white"/>
<path d="M7.8055 1.55152C7.5405 1.37452 7.2245 1.69052 7.401 1.95552L7.716 2.42802C7.84379 2.6196 7.91198 2.84473 7.91198 3.07502C7.91198 3.30531 7.84379 3.53044 7.716 3.72202L7.401 4.19452C7.2245 4.45952 7.541 4.77552 7.806 4.59852L8.278 4.28352C8.46959 4.15574 8.69472 4.08754 8.925 4.08754C9.15529 4.08754 9.38042 4.15574 9.572 4.28352L10.0445 4.59852C10.3095 4.77552 10.6255 4.45952 10.4485 4.19452L10.1335 3.72202C10.0057 3.53044 9.93753 3.30531 9.93753 3.07502C9.93753 2.84473 10.0057 2.6196 10.1335 2.42802L10.4485 1.95552C10.6255 1.69052 10.3095 1.37452 10.044 1.55152L9.572 1.86652C9.38042 1.9943 9.15529 2.06249 8.925 2.06249C8.69472 2.06249 8.46959 1.9943 8.278 1.86652L7.8055 1.55152Z" fill="white"/>
</svg>
