<svg width="19" height="13" viewBox="0 0 19 13" fill="none" xmlns="http://www.w3.org/2000/svg">
<path d="M18.1075 1.92942C18.005 1.56372 17.8053 1.23263 17.5296 0.97136C17.2462 0.70205 16.8988 0.509406 16.5203 0.411612C15.1035 0.0381951 9.42762 0.0381952 9.42762 0.0381952C7.06138 0.0112735 4.69573 0.129682 2.34401 0.392752C1.96546 0.497772 1.61873 0.69472 1.33466 0.966079C1.05554 1.23464 0.853365 1.56581 0.747752 1.92866C0.49405 3.2954 0.370784 4.68316 0.379616 6.07321C0.370563 7.46202 0.493527 8.84932 0.747752 10.2178C0.851102 10.5791 1.05252 10.9088 1.33239 11.1751C1.61227 11.4414 1.96079 11.6337 2.34401 11.7356C3.77959 12.1082 9.42762 12.1082 9.42762 12.1082C11.7969 12.1352 14.1655 12.0168 16.5203 11.7537C16.8988 11.6559 17.2462 11.4632 17.5296 11.1939C17.8087 10.9276 18.0071 10.5965 18.1067 10.2359C18.3671 8.86965 18.4936 7.48133 18.4847 6.09056C18.5042 4.69391 18.3778 3.29904 18.1075 1.92866V1.92942ZM7.62315 8.6562V3.49098L12.3455 6.07397L7.62315 8.6562Z" fill="white"/>
</svg>
