<svg width="40" height="40" viewBox="0 0 40 40" fill="none" xmlns="http://www.w3.org/2000/svg">
<path d="M34.6095 0H5.39008C2.41328 0 0 2.41318 0 5.39008V34.6097C0 37.5866 2.41318 39.9998 5.39008 39.9998H19.801L19.8255 25.706H16.112C15.6294 25.706 15.2377 25.3158 15.2359 24.8332L15.2181 20.2257C15.2162 19.7405 15.6091 19.3462 16.0943 19.3462H19.8011V14.8942C19.8011 9.72768 22.9564 6.91449 27.5653 6.91449H31.3472C31.8311 6.91449 32.2234 7.30677 32.2234 7.79074V11.6758C32.2234 12.1596 31.8314 12.5517 31.3477 12.552L29.0268 12.5531C26.5203 12.5531 26.035 13.7441 26.035 15.492V19.3463H31.5425C32.0673 19.3463 32.4744 19.8045 32.4126 20.3256L31.8665 24.9331C31.8142 25.374 31.4404 25.7062 30.9964 25.7062H26.0596L26.035 40H34.6097C37.5865 40 39.9997 37.5868 39.9997 34.61V5.39008C39.9996 2.41318 37.5864 0 34.6095 0Z" fill="#475993"/>
</svg>
