<svg width="40" height="40" viewBox="0 0 40 40" fill="none" xmlns="http://www.w3.org/2000/svg">
<path d="M0 40L2.75859 30C0.965547 26.8966 0 23.4483 0 19.862C0 8.96555 8.96555 0 19.931 0C30.8965 0 40 8.96555 40 19.862C40 30.7585 30.8966 40 19.931 40C16.4827 40 13.1724 38.8966 10.2069 37.2414L0 40Z" fill="#EDEDED"/>
<path d="M10.7586 33.6561L11.3793 34.0009C13.931 35.5871 16.8965 36.5527 20 36.5527C29.0344 36.5527 36.5517 29.0354 36.5517 19.863C36.5517 10.6905 29.0344 3.44922 19.931 3.44922C10.8275 3.44922 3.44824 10.7595 3.44824 19.863C3.44824 23.0354 4.3448 26.1388 5.99996 28.7595L6.41379 29.3802L4.82762 35.1734L10.7586 33.6561Z" fill="#55CD6C"/>
<path d="M14.6209 10.6198L13.3106 10.5508C12.8968 10.5508 12.483 10.6887 12.2072 10.9646C11.5865 11.5163 10.552 12.5508 10.2761 13.9302C9.79341 15.9991 10.552 18.4819 12.3451 20.9646C14.1383 23.4473 17.5865 27.4473 23.6554 29.1715C25.5865 29.7232 27.1037 29.3784 28.3451 28.6198C29.3107 27.9991 29.9313 27.0336 30.1383 25.9991L30.3451 25.0335C30.4141 24.7577 30.2761 24.4128 30.0003 24.2749L25.6554 22.2749C25.3796 22.137 25.0347 22.2059 24.8279 22.4818L23.1037 24.6887C22.9658 24.8266 22.7589 24.8955 22.552 24.8266C21.3796 24.4128 17.4486 22.7577 15.3106 18.6198C15.2416 18.4129 15.2416 18.2059 15.3796 18.068L17.0347 16.206C17.1727 15.9991 17.2416 15.7233 17.1727 15.5163L15.1727 11.0336C15.1036 10.8266 14.8968 10.6198 14.6209 10.6198Z" fill="#FEFEFE"/>
</svg>
