<svg id="Layer_1" data-name="Layer 1" xmlns="http://www.w3.org/2000/svg" viewBox="0 0 56.83 84.07"><defs><style>.cls-1{fill:#cccccc;}</style></defs><title>Mesa de trabajo 17</title><polygon class="cls-1" points="44.83 30.64 17.62 30.64 17.62 3.31 52.99 3.31 52.99 12.56 28.3 12.56 28.3 15.87 56.3 15.87 56.3 0 14.31 0 14.31 33.95 44.83 33.95 44.83 30.64"/><polygon class="cls-1" points="49.64 56.09 17.62 56.09 17.62 40.41 51.49 40.41 51.49 24.34 24.24 24.34 24.24 9.61 49.64 9.61 49.64 6.3 20.93 6.3 20.93 27.65 48.19 27.65 48.19 37.1 14.31 37.1 14.31 59.4 49.64 59.4 49.64 56.09"/><polygon class="cls-1" points="7.58 65.78 56.3 65.78 56.3 49.55 24.24 49.55 24.24 44.05 20.93 44.05 20.93 52.86 52.99 52.86 52.99 62.47 10.89 62.47 10.89 0 0.53 0 0.53 3.31 7.58 3.31 7.58 65.78"/><path class="cls-1" d="M14.22,81.46h-4V79.35h3.46a.38.38,0,0,0,.43-.42V77.24a.38.38,0,0,0-.43-.42H10.25v-2h3.89a.38.38,0,0,0,.42-.42V72.66a.38.38,0,0,0-.42-.42H8a.38.38,0,0,0-.42.42v11a.38.38,0,0,0,.42.43h6.25a.38.38,0,0,0,.42-.43V81.89a.39.39,0,0,0-.42-.43"/><path class="cls-1" d="M24.12,72.24H22.27a.38.38,0,0,0-.43.42v6.17l-4-6.32a.56.56,0,0,0-.52-.27H16a.38.38,0,0,0-.42.42v11a.38.38,0,0,0,.42.43h1.86a.38.38,0,0,0,.42-.43V77.48l4,6.32a.61.61,0,0,0,.53.27h1.26a.39.39,0,0,0,.43-.43v-11a.39.39,0,0,0-.43-.42"/><path class="cls-1" d="M33.1,72.24H25.83a.38.38,0,0,0-.42.42v1.76a.38.38,0,0,0,.42.42h2.28v8.8a.39.39,0,0,0,.43.43h1.85a.39.39,0,0,0,.43-.43v-8.8H33.1a.38.38,0,0,0,.42-.42V72.66a.38.38,0,0,0-.42-.42"/><path class="cls-1" d="M36.91,72.24H35.05a.39.39,0,0,0-.43.42v11a.39.39,0,0,0,.43.43h1.86a.38.38,0,0,0,.42-.43v-11a.38.38,0,0,0-.42-.42"/><path class="cls-1" d="M46,72.24H38.69a.38.38,0,0,0-.42.42v1.76a.38.38,0,0,0,.42.42H41v8.8a.39.39,0,0,0,.43.43h1.85a.39.39,0,0,0,.43-.43v-8.8H46a.38.38,0,0,0,.42-.42V72.66a.38.38,0,0,0-.42-.42"/><path class="cls-1" d="M56.47,72.24H54.31a.5.5,0,0,0-.49.3l-1.93,3.69L50,72.54a.5.5,0,0,0-.49-.3H47.31c-.32,0-.46.2-.29.51l3.52,6.14v4.75a.38.38,0,0,0,.42.43h1.86a.38.38,0,0,0,.42-.43V78.89l3.51-6.14c.17-.31,0-.51-.28-.51"/><path class="cls-1" d="M5.65,72.24H3.7a.42.42,0,0,0-.22.05l-3.29,2a.38.38,0,0,0-.13.53l1,1.66a.39.39,0,0,0,.53.13l1.74-1v8.12a.39.39,0,0,0,.38.39H5.65A.39.39,0,0,0,6,83.68V72.63a.38.38,0,0,0-.39-.39"/></svg>