<svg id="Layer_1" data-name="Layer 1" xmlns="http://www.w3.org/2000/svg" viewBox="0 0 96.99 50.8"><defs><style>.cls-1,.cls-2{fill:#cccccc;}.cls-2{font-size:4.68px;font-family:Montserrat-Regular, Montserrat;letter-spacing:0.02em;}.cls-3{letter-spacing:0em;}.cls-4{letter-spacing:0.02em;}.cls-5{letter-spacing:0.02em;}.cls-6{letter-spacing:0.01em;}.cls-7{letter-spacing:0.03em;}.cls-8{letter-spacing:0em;}</style></defs><title>Mesa de trabajo 22</title><path class="cls-1" d="M9,32.17v4.14H8a4.09,4.09,0,0,0-1-2.42,3.2,3.2,0,0,0-2.38-.8,3.43,3.43,0,0,0-1.5.31,2.68,2.68,0,0,0-1,.75,3.58,3.58,0,0,0-.52,1.16,6.27,6.27,0,0,0-.23,1.3c0,.39,0,.86,0,1.42s0,.88,0,1.21a10.91,10.91,0,0,0,.13,1.13,3.42,3.42,0,0,0,.33,1.05,3.81,3.81,0,0,0,.58.79,2.11,2.11,0,0,0,.93.58A4.62,4.62,0,0,0,4.8,43a3.61,3.61,0,0,0,2.43-.59,2.75,2.75,0,0,0,.7-1.87l1.17.06a6.17,6.17,0,0,1-.26,1.48,3.25,3.25,0,0,1-.64,1.12,2.66,2.66,0,0,1-1.29.77,7.75,7.75,0,0,1-2.09.24,5.91,5.91,0,0,1-2.17-.35A3.67,3.67,0,0,1,1.24,43a3.73,3.73,0,0,1-.79-1.39,8.09,8.09,0,0,1-.37-1.65C0,39.38,0,38.76,0,38a17.55,17.55,0,0,1,.09-1.9,7.26,7.26,0,0,1,.39-1.66,4,4,0,0,1,.8-1.38,3.85,3.85,0,0,1,1.37-.87,5.85,5.85,0,0,1,2.06-.34A3.59,3.59,0,0,1,8,33.44l0-1.27Z"/><path class="cls-1" d="M19.14,42.56a5.8,5.8,0,0,1-4,1.62,3.6,3.6,0,0,1-2.7-.82,3.45,3.45,0,0,1-.77-2.44,3.64,3.64,0,0,1,.74-2.54,4.3,4.3,0,0,1,2.81-.92L19,37.21V35.16c0-1.38-.87-2.07-2.62-2.07a3.31,3.31,0,0,0-2.33.6,2.81,2.81,0,0,0-.66,1.86l-1.21-.06A6,6,0,0,1,12.47,34a3.25,3.25,0,0,1,.64-1.12,2.49,2.49,0,0,1,1.26-.77,7.35,7.35,0,0,1,2.05-.25c2.7,0,4.06,1.1,4.06,3.28v7.71h1.23v1h-2.2ZM19,41.42v-3.1l-3.71.23a2.69,2.69,0,0,0-1.77.56A2.78,2.78,0,0,0,13.1,41a2,2,0,0,0,.51,1.52,2.45,2.45,0,0,0,1.76.5A5.24,5.24,0,0,0,19,41.42Z"/><path class="cls-1" d="M90.35,32.17H92.2V29.83l2.07-.28v2.62h2.15v1.4H94.27V41a2.41,2.41,0,0,0,.25,1.29,1,1,0,0,0,.85.36,5.23,5.23,0,0,0,1.09-.16l.25,1.35a6.33,6.33,0,0,1-2,.37A3.19,3.19,0,0,1,93.53,44a2.06,2.06,0,0,1-.75-.47,1.86,1.86,0,0,1-.39-.74,4.25,4.25,0,0,1-.16-.81c0-.23,0-.53,0-.88V33.57H90.35Z"/><path class="cls-1" d="M65.65,20.53a1.2,1.2,0,0,1,.08.36l-6.46-.51-1.7-1.11,6.39.5,2,.15-.53.36Z"/><path class="cls-1" d="M52.12,8l-.95.17L51,10.06,50.1,8.62,50,8.42l-.46-.7L46.28,2.79,37.13,15.3l2.45,2.11.05,0,.48-.05c.71-.22.89.22,1.23.47l.73.64.21.19.88.81h-.28v.62l.9-.07.35.32.61.58-1.54.13-.05,1.14-.32-.2-.7-.47-1.38-.94-1-.72a4.17,4.17,0,0,0-.37-.26l-4.64,4.89a.34.34,0,0,1-.53-.43l3.53-5-7.07-7.07-8.15,8.07,1.63,1.61a.14.14,0,0,1,0,.15A.13.13,0,0,1,24,22l-2.23-1.08L15.61,27H13.77a.67.67,0,0,1,.13-.21L30,10.24a.86.86,0,0,1,1.17,0l0,0,5.12,4.41L44.49,1a1.91,1.91,0,0,1,.33-.42,2,2,0,0,1,2.89,0l.46.46a10.72,10.72,0,0,1,1.27,2l.22.4.9,1.65h-.09l-.34.06v.59l.73-.13.52,1-.8.15v.48l1-.19Z"/><path class="cls-1" d="M53,9.51l1,1.88H53.9l-1.25.11h-.08a.25.25,0,0,1-.24-.23V9.8a.22.22,0,0,1,.19-.22h0Z"/><path class="cls-1" d="M54.86,15.36a.3.3,0,0,1,.1.21v.5l-.49-.75.15,0h0A.34.34,0,0,1,54.86,15.36Z"/><path class="cls-1" d="M83.22,27H81.11L69.7,18.22l-.57-.44-.61.41-.45.3-1.31.87h-.22l-1.3-.1L62.6,19l-.41,0h0l-.56,0-.44,0-1.87-.14-.45,0-1.38-.11-.25,0H57l-.42,0-.67-1,.89.07V15.57a.3.3,0,0,1,.1-.21.36.36,0,0,1,.2-.06h0l2.28.33a.29.29,0,0,1,.24.28v1.93l1.34.1V16.31a.28.28,0,0,1,.11-.22h0L63.06,18l.13.13.46.46.69-.37.69-.37,1.79-1,1.88-1,0,0a.9.9,0,0,1,1,.1Z"/><path class="cls-1" d="M69.93,28.37l-.37-7.19h.07a.3.3,0,0,0,.2-.08.28.28,0,0,0,.1-.2v-2a.29.29,0,0,0-.23-.27V17.48a.29.29,0,0,0-.25-.28l-.59-.08h0a.37.37,0,0,0-.2.07.3.3,0,0,0-.1.22v1.13l-.45,0-1.14-.09V17.08a.25.25,0,0,0-.11-.21.26.26,0,0,0-.15-.07l-1.29-.18h0a.32.32,0,0,0-.19.07.28.28,0,0,0-.11.21v1.36l-.69-.05-1.15-.09h-.13V16.51a.28.28,0,0,0-.25-.27l-.48-.07-.57-7.74h.07A.33.33,0,0,0,62,8.38a.28.28,0,0,0,.11-.22V7l.24,0h.06a.24.24,0,0,0,.18-.07.26.26,0,0,0,.11-.21V4.63a.28.28,0,0,0-.24-.27l-.37-.07V3.09a.29.29,0,0,0-.24-.27l-1.14-.2h-.06a.35.35,0,0,0-.19.06.28.28,0,0,0-.1.21V4L60,3.92V2.54a.29.29,0,0,0-.24-.27L57,1.79h-.05a.32.32,0,0,0-.19.07.26.26,0,0,0-.11.21V3.33l-.67-.12h-.16l-.62.11V2.07a.26.26,0,0,0-.11-.21.31.31,0,0,0-.19-.06h0l-2.75.48a.29.29,0,0,0-.24.27V3.92L51.39,4V2.89a.28.28,0,0,0-.1-.21.35.35,0,0,0-.19-.06H51l-1.14.2a.29.29,0,0,0-.24.27v1.2l-.37.07a.28.28,0,0,0-.24.27V6.72a.28.28,0,0,0,.1.21.3.3,0,0,0,.19.07h.16V8.16a.28.28,0,0,0,.11.22.31.31,0,0,0,.19.06h.06l.1,0,.15,0v.23l-.55,7.54-.52.08a.27.27,0,0,0-.25.27V18.1l-2,.15V16.89a.28.28,0,0,0-.11-.21.32.32,0,0,0-.19-.07h0l-1.3.18a.29.29,0,0,0-.26.28V18.4l-1.59.13V17.4a.28.28,0,0,0-.11-.22.32.32,0,0,0-.19-.07h0l-.59.08a.29.29,0,0,0-.25.28v1.14a.29.29,0,0,0-.23.27v2a.28.28,0,0,0,.1.2.3.3,0,0,0,.2.08h0l0,.39-.29,6.79-.12,2.68a.34.34,0,0,0,.05.17.23.23,0,0,0,.09.08.29.29,0,0,0,.16,0,.4.4,0,0,0,.15,0l.16-.08.28-.16a.25.25,0,0,0,.15-.23l.12-2.47.27-6.12.05-1.14L44.74,21l11.15-.86,3.38.26,6.46.51,2.78.21.38,7.27v.14a.3.3,0,0,0,.3.27h.44a.36.36,0,0,0,.22-.09.3.3,0,0,0,.08-.2ZM51.15,5.06l1-.17.69-.13,1.61-.28.45-.07,1-.17,5.75,1v.59l-5.7-1h-.13l-1.3.23h0l-3.64.64-.73.13V5.24l.34-.06h.09Zm9.9,1.74v.44l-4.79-.86-.29,0h-.16l-.32,0-3.87.7-1,.19V6.8l.8-.15,1.69-.3.34-.06,2.45-.44.21,0,.09,0ZM51.17,8.18,52.12,8l3.79-.69,4.8.87L61.27,16a.27.27,0,0,0-.14,0h0a.28.28,0,0,0-.11.22v1.63l-1.34-.1V15.91a.29.29,0,0,0-.24-.28l-2.28-.33h0a.36.36,0,0,0-.2.06.3.3,0,0,0-.1.21v2.05l-.89-.07h-.08l-.88.07V15.57a.3.3,0,0,0-.1-.21.34.34,0,0,0-.2-.06h0l-.15,0-2.12.31a.3.3,0,0,0-.25.28v1.93l-1.28.1V16.31a.3.3,0,0,0-.1-.22A.67.67,0,0,0,50.6,16l.43-6Zm17.72,12-3-.23-2-.15-6.39-.5-1.66-.12h-.07l-8.16.63-3.9.3-.9.07v-.62h.28l2-.16,1.29-.1,2.64-.2.45,0h.13l.43,0,.45,0,1.86-.15.44,0,1.38-.11.33,0h.12l1.2-.09.7.05.42,0h.19l.25,0,1.38.11.45,0,1.87.14.44,0,.56,0h0l.41,0,2.64.21,1.3.1h.22l2,.16h.16Z"/><path class="cls-1" d="M54.18,9.57v1.59a.24.24,0,0,1-.19.23H53.9l-1.25.11h-.08a.25.25,0,0,1-.24-.23V9.8a.22.22,0,0,1,.19-.22h0L53,9.51l.91-.16h.06A.25.25,0,0,1,54.18,9.57Z"/><path class="cls-1" d="M32.69,32.17v4.14h-.94a6.64,6.64,0,0,0-.31-1.68,2,2,0,0,0-.67-1,2.37,2.37,0,0,0-1-.45,7.22,7.22,0,0,0-1.47-.12,2.6,2.6,0,0,0-1.84.56,1.9,1.9,0,0,0-.58,1.45,1.64,1.64,0,0,0,.48,1.28,3.88,3.88,0,0,0,1.69.75l1.6.43a7.08,7.08,0,0,1,2.69,1.2,2.65,2.65,0,0,1,.81,2.14q0,3.29-4,3.28a3.87,3.87,0,0,1-3.63-1.8l0,1.52H24.47V39.76h1A3.18,3.18,0,0,0,28.92,43q2.79,0,2.79-2.07a1.59,1.59,0,0,0-.47-1.19A3.84,3.84,0,0,0,29.58,39L28,38.53a7.35,7.35,0,0,1-2.73-1.18,2.78,2.78,0,0,1-.82-2.23,3,3,0,0,1,1-2.34,4.11,4.11,0,0,1,2.88-.9,3.71,3.71,0,0,1,3.38,1.48l0-1.19Z"/><path class="cls-1" d="M35.3,32.17h1.84V29.83l1.44-.28v2.62h2.15v1H38.58v8.13a2.59,2.59,0,0,0,.25,1.34,1,1,0,0,0,.85.39,5.41,5.41,0,0,0,1.13-.17l.18,1a6.68,6.68,0,0,1-1.76.28,2.45,2.45,0,0,1-.95-.16,1.72,1.72,0,0,1-.62-.41,1.77,1.77,0,0,1-.33-.66,3.23,3.23,0,0,1-.16-.76c0-.23,0-.52,0-.86V33.2H35.3Z"/><path class="cls-1" d="M50.48,42.5h1.15V35.78a2.6,2.6,0,0,0-.46-1.69,1.88,1.88,0,0,0-1.55-.57,4.58,4.58,0,0,0-3,1.17V42.5h1.23v1.4H43.29V42.5h1.23V33.57H43.29v-1.4h2.44l.53,1.11A5.73,5.73,0,0,1,50,31.88a3.44,3.44,0,0,1,3.28,1.56A6.11,6.11,0,0,1,55,32.33a5.37,5.37,0,0,1,2.14-.45q3.69,0,3.69,3.69V42.5h1.23v1.4H57.51V42.5h1.23V35.78a2.67,2.67,0,0,0-.45-1.68,1.81,1.81,0,0,0-1.51-.58,4.73,4.73,0,0,0-3.14,1.27,4.93,4.93,0,0,1,.06.78V42.5h1.17v1.4H50.48Z"/><path class="cls-1" d="M67,43.83A3.89,3.89,0,0,1,65.53,43a3.68,3.68,0,0,1-.85-1.39,6.6,6.6,0,0,1-.4-1.65A17.15,17.15,0,0,1,64.2,38a17,17,0,0,1,.08-1.87,6.6,6.6,0,0,1,.4-1.65,3.73,3.73,0,0,1,.85-1.4A4.15,4.15,0,0,1,67,32.23a7.9,7.9,0,0,1,4.65,0,4.1,4.1,0,0,1,1.5.88,3.87,3.87,0,0,1,.86,1.4,7.06,7.06,0,0,1,.4,1.65c0,.52.08,1.15.08,1.87s0,1.35-.08,1.88a7.06,7.06,0,0,1-.4,1.65,3.5,3.5,0,0,1-2.36,2.27,7.9,7.9,0,0,1-4.65,0Zm3.57-1.44a1.91,1.91,0,0,0,.86-.49,3.51,3.51,0,0,0,.54-.71,3.07,3.07,0,0,0,.29-.94c.06-.39.11-.73.13-1s0-.7,0-1.17,0-.85,0-1.17-.07-.66-.13-1a3,3,0,0,0-.29-.94,3.25,3.25,0,0,0-.54-.71,1.82,1.82,0,0,0-.86-.49,4.22,4.22,0,0,0-1.25-.16,4.26,4.26,0,0,0-1.25.16,1.87,1.87,0,0,0-.86.49,2.92,2.92,0,0,0-.53.71,2.74,2.74,0,0,0-.3.94c-.06.38-.1.73-.12,1s0,.71,0,1.17,0,.86,0,1.17.06.66.12,1a2.81,2.81,0,0,0,.3.94,3.12,3.12,0,0,0,.53.71,2,2,0,0,0,.86.49,4.65,4.65,0,0,0,1.25.15A4.6,4.6,0,0,0,70.61,42.39Z"/><path class="cls-1" d="M76.86,32.17h2.36l.64,1.17A7,7,0,0,1,84,31.88q3.54,0,3.54,3.71V42.5h1.23v1.4H84.35V42.5h1.14V35.72A2.52,2.52,0,0,0,85.05,34a1.87,1.87,0,0,0-1.48-.51,5.49,5.49,0,0,0-3.41,1.27V42.5h1.15v1.4H76.86V42.5h1.23V33.57H76.86Z"/><text class="cls-2" transform="translate(0.29 49.57)">Resgua<tspan class="cls-3" x="18.09" y="0">r</tspan><tspan class="cls-4" x="19.99" y="0">da</tspan><tspan class="cls-5" x="26.08" y="0">m</tspan><tspan x="31.14" y="0">os y </tspan><tspan class="cls-6" x="41.74" y="0">f</tspan><tspan class="cls-4" x="43.37" y="0">o</tspan><tspan class="cls-7" x="46.38" y="0">r</tspan><tspan class="cls-4" x="48.4" y="0">tale</tspan><tspan class="cls-6" x="57.47" y="0">c</tspan><tspan class="cls-4" x="60.14" y="0">e</tspan><tspan class="cls-5" x="63.05" y="0">m</tspan><tspan class="cls-4" x="68.1" y="0">os tu ma</tspan><tspan class="cls-8" x="89.18" y="0">r</tspan><tspan class="cls-4" x="91.08" y="0">ca</tspan></text></svg>