<svg id="Layer_1" data-name="Layer 1" xmlns="http://www.w3.org/2000/svg" viewBox="0 0 95.41 49.17"><defs><style>.cls-1{fill:#cccccc;}</style></defs><title>Mesa de trabajo 18</title><path class="cls-1" d="M29.86,41.11a11,11,0,0,1-5.48-1.36,9.61,9.61,0,0,1-4.87-6.7,10.76,10.76,0,0,1,.57-6.44,9.57,9.57,0,0,1,6.68-5.81,11,11,0,0,1,9.88,2,7.48,7.48,0,0,1,.85.75,2.13,2.13,0,0,1-.28,3.2,2.17,2.17,0,0,1-3-.32,5.37,5.37,0,0,0-3.56-1.8,6,6,0,0,0-2.79.29,5.16,5.16,0,0,0-3,2.63,7,7,0,0,0-.06,6.32,5.3,5.3,0,0,0,4.38,3.08,6.19,6.19,0,0,0,3.07-.38,5,5,0,0,0,1.9-1.31,2.19,2.19,0,0,1,1.8-.79,2.39,2.39,0,0,1,2,1.45,2.08,2.08,0,0,1-.55,2.29,11.1,11.1,0,0,1-5.2,2.68A10.82,10.82,0,0,1,29.86,41.11Z"/><path class="cls-1" d="M91.08,27.45v-.34c0-1.52,0-3,0-4.56a2.76,2.76,0,0,1,.13-.86,2.15,2.15,0,0,1,4.17.7c0,3.93,0,7.86,0,11.8a6.42,6.42,0,0,1-3.72,5.93A8.72,8.72,0,0,1,83.93,40a7,7,0,0,1-3.8-5.53A7.92,7.92,0,0,1,80.81,30,6.64,6.64,0,0,1,86,26.05a5.89,5.89,0,0,1,3.82.54,11.3,11.3,0,0,1,1,.68C90.91,27.31,91,27.37,91.08,27.45Zm-3.27,9.73A3.32,3.32,0,0,0,91,35a4.23,4.23,0,0,0,.21-2.17,3.37,3.37,0,0,0-2.94-3A3.33,3.33,0,0,0,84.8,31.6a4.25,4.25,0,0,0-.33,2.83A3.37,3.37,0,0,0,87.81,37.18Z"/><path class="cls-1" d="M55.86,11.27a10.54,10.54,0,0,1,3.35-8.36,10.66,10.66,0,0,1,14.89.25,10.49,10.49,0,0,1,3.11,8c.34,0,.67.07,1,.13a5.7,5.7,0,0,1,.08,11.22,6.35,6.35,0,0,1-1.07.09H67.3a5.7,5.7,0,0,1-5.58-4.44,5.6,5.6,0,0,1,1.44-5.2c.06-.08.13-.15.22-.25l-.24,0H56.88a3.64,3.64,0,0,0-2.5,1,4.41,4.41,0,0,0,.53,6.79,3.68,3.68,0,0,0,2,.62h3.79a.73.73,0,0,1,.76.5.72.72,0,0,1-.56,1,2.36,2.36,0,0,1-.38,0H57.1a5.11,5.11,0,0,1-4.54-2.5,6,6,0,0,1,1-7.56,5,5,0,0,1,2.06-1.16Zm1.49-.11H69.67a.77.77,0,0,1,.71.72.72.72,0,0,1-.65.76l-.33,0c-.7,0-1.41,0-2.11,0a4.73,4.73,0,0,0-1.06.13,4.22,4.22,0,0,0,1.07,8.3h9.92a4.58,4.58,0,0,0,1-.11A4.21,4.21,0,0,0,81.3,15.8a4.31,4.31,0,0,0-4.1-3.14c-.26,0-.51,0-.77,0a.85.85,0,0,1-.76-1,9,9,0,0,0-.14-2.84A9.17,9.17,0,0,0,64.88,1.64a9,9,0,0,0-6.37,4.55,9.08,9.08,0,0,0-1.18,4.26C57.33,10.68,57.34,10.9,57.35,11.16Z"/><path class="cls-1" d="M54.88,26a8.49,8.49,0,0,1,4,.87,6.83,6.83,0,0,1,3.7,4.87,8.14,8.14,0,0,1-.15,4.13,6.66,6.66,0,0,1-4,4.45,8.71,8.71,0,0,1-7.07-.05,6.7,6.7,0,0,1-4-5.09,8.21,8.21,0,0,1,.24-4.26,6.86,6.86,0,0,1,4.8-4.57A8.8,8.8,0,0,1,54.88,26Zm3.54,7.53c0-.28,0-.56-.09-.84a3.33,3.33,0,0,0-3.62-2.88,3.16,3.16,0,0,0-2.8,1.85,4.29,4.29,0,0,0-.35,2.57,3.42,3.42,0,0,0,6.5,1A4.33,4.33,0,0,0,58.42,33.49Z"/><path class="cls-1" d="M74,38.57l-.23.29a5.08,5.08,0,0,1-8.9-1.2,6.12,6.12,0,0,1-.45-2.27c0-2.25,0-4.5,0-6.76a2.15,2.15,0,0,1,4.24-.51,3.19,3.19,0,0,1,.08.62v5.38a4.13,4.13,0,0,0,.18,1.3,2.44,2.44,0,0,0,2.47,1.75,2.5,2.5,0,0,0,2.31-1.76,3.66,3.66,0,0,0,.17-1.14c0-1.85,0-3.71,0-5.57a2.1,2.1,0,0,1,1.23-2,2.15,2.15,0,0,1,3.09,1.9c0,3.31,0,6.62,0,9.93a1.87,1.87,0,0,1-1.82,1.87,4.2,4.2,0,0,1-.87,0A1.85,1.85,0,0,1,74,38.76,1,1,0,0,1,74,38.57Z"/><path class="cls-1" d="M40.86,30.34v-7.9A2.06,2.06,0,0,1,42,20.53a2.15,2.15,0,0,1,3.19,1.86.86.86,0,0,1,0,.16q0,7.8,0,15.59a2.24,2.24,0,0,1-.61,1.63,2.16,2.16,0,0,1-2.35.51,2.14,2.14,0,0,1-1.36-2v-8Z"/><path class="cls-1" d="M9.58,32V26.33a1.22,1.22,0,0,1,0-.27.62.62,0,0,1,1.24,0,2.44,2.44,0,0,1,0,.27V35.3a5.74,5.74,0,0,1-.68,2.87,5,5,0,0,1-3.58,2.56,5.68,5.68,0,0,1-2.95-.18A4.9,4.9,0,0,1,.5,37.67a5.85,5.85,0,0,1,.22-5.19,4.91,4.91,0,0,1,3.69-2.61,5.26,5.26,0,0,1,2.81.22,4.44,4.44,0,0,1,2.14,1.65,1.77,1.77,0,0,0,.16.22ZM1.27,35.28c0,.2,0,.4.05.6a4.12,4.12,0,0,0,1.9,3.18,4,4,0,0,0,2.66.59,3.87,3.87,0,0,0,3.23-2.18,4.79,4.79,0,0,0,.46-2.88,4,4,0,0,0-4-3.64,3.9,3.9,0,0,0-3.79,2.19A4.52,4.52,0,0,0,1.27,35.28Z"/><path class="cls-1" d="M14.27,35.3V30.77a.61.61,0,0,1,.56-.57.59.59,0,0,1,.67.47,1,1,0,0,1,0,.3v8.67a1.51,1.51,0,0,1,0,.3.63.63,0,0,1-1.24-.09V35.3Z"/><path class="cls-1" d="M44,49.07h-.34c0-.16.05-.31.08-.46.12-.53.23-1.06.34-1.58l0-.14c0-.42-.13-.61-.57-.59a1,1,0,0,0-.85.54,2.87,2.87,0,0,0-.23.64c-.13.52-.23,1.05-.35,1.59h-.32a2.54,2.54,0,0,1,0-.29c.13-.6.26-1.2.38-1.8s-.15-.77-.67-.66a1,1,0,0,0-.79.65,7.9,7.9,0,0,0-.27,1c-.09.38-.16.76-.25,1.15h-.34l.63-3h.33l0,.36.18-.14a1.33,1.33,0,0,1,.81-.31.67.67,0,0,1,.8.53l.2-.18A1.32,1.32,0,0,1,44,46a.51.51,0,0,1,.45.48,1.87,1.87,0,0,1,0,.41C44.29,47.63,44.14,48.34,44,49.07Z"/><path class="cls-1" d="M21.07,49.07h-.33l.64-3h.32l0,.37a1.53,1.53,0,0,1,.17-.14,1.29,1.29,0,0,1,1-.32.58.58,0,0,1,.55.39l.07.13.15-.14A1.3,1.3,0,0,1,24.77,46a.55.55,0,0,1,.53.53,1.61,1.61,0,0,1,0,.44c-.13.67-.28,1.34-.42,2,0,0,0,0,0,.08H24.5c.08-.4.17-.78.24-1.16s.15-.67.21-1-.14-.63-.56-.59a1,1,0,0,0-.87.58,2.87,2.87,0,0,0-.23.7c-.12.49-.22,1-.32,1.49h-.35c.11-.5.21-1,.31-1.46.05-.24.11-.47.14-.7.06-.46-.17-.67-.62-.6a1,1,0,0,0-.8.56,2.87,2.87,0,0,0-.23.64c-.11.45-.19.89-.29,1.34A1,1,0,0,1,21.07,49.07Z"/><path class="cls-1" d="M66.16,48.74l-.23.14a1.69,1.69,0,0,1-1.18.27.66.66,0,0,1-.59-.87,1,1,0,0,1,.5-.66,2,2,0,0,1,.79-.23c.26,0,.52-.06.78-.11a.44.44,0,0,0,.37-.5.43.43,0,0,0-.37-.45,1,1,0,0,0-1.26.55l-.06.09h-.3A1.24,1.24,0,0,1,65.69,46a2.81,2.81,0,0,1,.58,0,.66.66,0,0,1,.66.88c-.07.38-.16.75-.24,1.13,0,.17-.07.35-.11.53s0,.32.27.3c0,.23,0,.26-.21.28S66.24,49.07,66.16,48.74Zm.29-1.21c-.14,0-.25.06-.35.07l-.87.11a.87.87,0,0,0-.63.4.46.46,0,0,0,.37.75,1.26,1.26,0,0,0,1.4-1C66.4,47.8,66.41,47.69,66.45,47.53Z"/><path class="cls-1" d="M55.84,48.85c-.06.25-.12.29-.34.29s-.31-.08-.37-.4l-.2.12a1.71,1.71,0,0,1-1.2.29.67.67,0,0,1-.6-.91,1,1,0,0,1,.5-.62,2,2,0,0,1,.79-.23c.25,0,.51-.06.76-.11a.45.45,0,0,0,.38-.51.42.42,0,0,0-.37-.44,1.1,1.1,0,0,0-1.32.64h-.3s0-.09,0-.12A1.26,1.26,0,0,1,54.66,46a2.25,2.25,0,0,1,.58,0,.65.65,0,0,1,.65.86c-.06.38-.15.75-.23,1.13,0,.18-.08.35-.11.53S55.51,48.86,55.84,48.85Zm-.43-1.3-1,.13a1.65,1.65,0,0,0-.32.07.76.76,0,0,0-.47.31.47.47,0,0,0,.37.8,1.37,1.37,0,0,0,1-.35,1.3,1.3,0,0,0,.27-.43A3.74,3.74,0,0,0,55.41,47.55Z"/><path class="cls-1" d="M19.57,48.73l-.23.15a1.7,1.7,0,0,1-1.2.26.65.65,0,0,1-.58-.85,1,1,0,0,1,.52-.68,2.12,2.12,0,0,1,.78-.22l.76-.11c.27,0,.37-.22.38-.52a.41.41,0,0,0-.38-.43,1.08,1.08,0,0,0-1.31.64l-.15,0L18,47a.66.66,0,0,1,.17-.43A1.23,1.23,0,0,1,19,46a3.05,3.05,0,0,1,.74,0,.63.63,0,0,1,.57.81c-.1.53-.22,1.05-.33,1.58l0,.16c0,.27,0,.29.26.28,0,.23,0,.26-.21.29S19.64,49.07,19.57,48.73Zm.24-1.19-.59.11c-.2,0-.4,0-.6.07a.81.81,0,0,0-.62.4.46.46,0,0,0,.37.74A1.26,1.26,0,0,0,19.81,47.54Z"/><path class="cls-1" d="M58.73,47h-.31a1.13,1.13,0,0,1,.49-.72,1.69,1.69,0,0,1,1.4-.2.6.6,0,0,1,.45.76c-.09.53-.21,1.06-.32,1.58,0,.06,0,.11,0,.16,0,.29,0,.31.27.31,0,.23,0,.27-.26.28s-.36-.08-.41-.41l-.23.14a1.69,1.69,0,0,1-1.2.28.66.66,0,0,1-.58-.87,1,1,0,0,1,.52-.67,2.12,2.12,0,0,1,.78-.22c.25,0,.51-.06.76-.11s.36-.21.37-.5a.42.42,0,0,0-.36-.45,1.06,1.06,0,0,0-1.28.57Zm1.51.58c-.41.06-.81.1-1.21.17a1.17,1.17,0,0,0-.35.14.64.64,0,0,0-.33.45.38.38,0,0,0,.24.48.9.9,0,0,0,.43.06A1.21,1.21,0,0,0,60.24,47.55Z"/><path class="cls-1" d="M74.62,48.86c0,.23-.05.27-.26.28s-.36-.08-.41-.41l-.23.14a1.66,1.66,0,0,1-1.2.27.65.65,0,0,1-.58-.87,1,1,0,0,1,.5-.65,2,2,0,0,1,.78-.23c.26,0,.53-.06.79-.11s.36-.22.36-.51a.41.41,0,0,0-.34-.43,1,1,0,0,0-1.29.54l-.06.1h-.3c0-.07,0-.14,0-.19a1.22,1.22,0,0,1,.71-.68A1.8,1.8,0,0,1,74.18,46a.62.62,0,0,1,.53.79c-.1.53-.22,1-.33,1.58a.59.59,0,0,0,0,.13C74.3,48.84,74.32,48.86,74.62,48.86Zm-.43-1.31L73,47.71a.89.89,0,0,0-.55.28.55.55,0,0,0-.15.58.54.54,0,0,0,.52.29.49.49,0,0,0,.17,0A1.21,1.21,0,0,0,74.19,47.55Z"/><path class="cls-1" d="M84.05,47h-.17l-.13,0c0-.07,0-.13,0-.18a1.23,1.23,0,0,1,.69-.67A1.81,1.81,0,0,1,85.56,46a.62.62,0,0,1,.52.79c-.1.53-.22,1.06-.33,1.58a1.48,1.48,0,0,0,0,.19c0,.25,0,.27.26.25,0,.23,0,.27-.2.29s-.41-.06-.46-.4l-.24.14a1.64,1.64,0,0,1-1.2.27.65.65,0,0,1-.57-.87,1,1,0,0,1,.62-.71,4.15,4.15,0,0,1,1.1-.23l.35,0a.45.45,0,0,0,.36-.51.4.4,0,0,0-.34-.43A1.09,1.09,0,0,0,84.05,47Zm1.5.57c-.34,0-.67.07-1,.12a2.23,2.23,0,0,0-.52.15.66.66,0,0,0-.38.49.4.4,0,0,0,.23.47.73.73,0,0,0,.29.07A1.23,1.23,0,0,0,85.55,47.56Z"/><path class="cls-1" d="M45.55,47h-.31a1.06,1.06,0,0,1,.44-.68,1.65,1.65,0,0,1,1.49-.22.6.6,0,0,1,.41.76c-.08.44-.18.87-.27,1.31,0,.15-.07.29-.09.43s0,.29.26.28c0,.23,0,.26-.21.29s-.39-.07-.46-.41l-.23.15a1.7,1.7,0,0,1-1.2.26.65.65,0,0,1-.58-.85,1,1,0,0,1,.52-.68,2.12,2.12,0,0,1,.78-.22l.76-.11c.27,0,.37-.22.38-.52a.41.41,0,0,0-.38-.43A1.08,1.08,0,0,0,45.55,47Zm1.5.59c-.34,0-.67.07-1,.12a2.23,2.23,0,0,0-.52.15.65.65,0,0,0-.37.49.38.38,0,0,0,.22.47.77.77,0,0,0,.29.07A1.23,1.23,0,0,0,47.05,47.56Z"/><path class="cls-1" d="M14.22,47.66H11.89a1.4,1.4,0,0,0,0,.64.75.75,0,0,0,.84.56,1.17,1.17,0,0,0,.88-.49,1.76,1.76,0,0,0,.12-.2h.38a1.61,1.61,0,0,1-1.18,1,2.15,2.15,0,0,1-.62,0,.87.87,0,0,1-.8-.81,2.2,2.2,0,0,1,.65-1.87,1.51,1.51,0,0,1,1.3-.45.87.87,0,0,1,.82.72A2.27,2.27,0,0,1,14.22,47.66ZM12,47.34a10.24,10.24,0,0,0,1.92,0,.29.29,0,0,0,0-.1A1.15,1.15,0,0,0,14,47a.71.71,0,0,0-.79-.74A1.32,1.32,0,0,0,12,47.34Z"/><path class="cls-1" d="M28.61,47.16a2.25,2.25,0,0,1-.52,1.41,1.6,1.6,0,0,1-1.41.59,1,1,0,0,1-1-1,2.22,2.22,0,0,1,.65-1.74A1.59,1.59,0,0,1,27.84,46a.92.92,0,0,1,.76.86A2.18,2.18,0,0,1,28.61,47.16Zm-.37,0V47a.7.7,0,0,0-.67-.73,1.07,1.07,0,0,0-.76.18,1.87,1.87,0,0,0-.68,1.84.66.66,0,0,0,.53.5,1.09,1.09,0,0,0,1.13-.4A2,2,0,0,0,28.24,47.17Z"/><path class="cls-1" d="M86.91,48.17c0,.09,0,.15,0,.21a.54.54,0,0,0,.43.45,1.07,1.07,0,0,0,.75-.07.83.83,0,0,0,.35-.29.38.38,0,0,0-.19-.62c-.16-.06-.32-.09-.48-.14a2.9,2.9,0,0,1-.57-.18.53.53,0,0,1-.32-.65,1,1,0,0,1,.82-.82,2,2,0,0,1,.81,0,.66.66,0,0,1,.55.88h-.28l0-.08c-.07-.38-.2-.52-.59-.53a1.43,1.43,0,0,0-.54.09.52.52,0,0,0-.33.37.32.32,0,0,0,.17.44,3.94,3.94,0,0,0,.48.18,6,6,0,0,1,.6.19.54.54,0,0,1,.36.66.93.93,0,0,1-.51.71,1.75,1.75,0,0,1-1.25.18.78.78,0,0,1-.58-1l.15,0Z"/><path class="cls-1" d="M31.46,46.93h-.28s0,0,0-.06c-.07-.41-.22-.55-.64-.57a.91.91,0,0,0-.64.18.43.43,0,0,0,.12.8c.18.07.37.11.55.17a2,2,0,0,1,.43.16.53.53,0,0,1,.31.66.93.93,0,0,1-.5.68,1.79,1.79,0,0,1-1.26.18.76.76,0,0,1-.57-1h.31a1.74,1.74,0,0,1,0,.22.53.53,0,0,0,.44.44,1.09,1.09,0,0,0,.67,0,1,1,0,0,0,.37-.26.41.41,0,0,0-.19-.7c-.14,0-.3-.08-.45-.12l-.45-.12a.59.59,0,0,1-.4-.83,1.09,1.09,0,0,1,.94-.74,2.18,2.18,0,0,1,.57,0C31.3,46.07,31.53,46.4,31.46,46.93Z"/><path class="cls-1" d="M70,46.94h-.21l-.08,0c-.11-.53-.39-.71-.93-.6a.7.7,0,0,0-.54.38.36.36,0,0,0,.18.53,2.28,2.28,0,0,0,.44.15c.18.06.37.1.55.17a.6.6,0,0,1,.38.86,1.08,1.08,0,0,1-.88.7,2.49,2.49,0,0,1-.77,0,.75.75,0,0,1-.63-1h.3l0,.14c0,.4.26.53.63.55a1.9,1.9,0,0,0,.58-.09.62.62,0,0,0,.38-.38.35.35,0,0,0-.19-.5,4,4,0,0,0-.52-.17,5.7,5.7,0,0,1-.55-.16.5.5,0,0,1-.35-.61,1,1,0,0,1,.66-.84,1.56,1.56,0,0,1,1-.06A.68.68,0,0,1,70,46.94Z"/><path class="cls-1" d="M14.9,28.17a.92.92,0,0,1,0-1.83.92.92,0,1,1,0,1.83Z"/><path class="cls-1" d="M80.79,46.09h.33l-.63,3h-.32v-.32l-.2.14a1.41,1.41,0,0,1-1.14.26.66.66,0,0,1-.57-.64,1.51,1.51,0,0,1,0-.3c.14-.7.29-1.39.44-2.11h.34c-.1.48-.19.94-.29,1.4,0,.19-.09.37-.12.56a1.53,1.53,0,0,0,0,.3.43.43,0,0,0,.37.47,1,1,0,0,0,1-.3,1.64,1.64,0,0,0,.39-.75c.1-.49.21-1,.31-1.47Z"/><path class="cls-1" d="M37.46,49.07h-.33l0-.36-.24.18a1.38,1.38,0,0,1-1.15.24.62.62,0,0,1-.53-.61,1.69,1.69,0,0,1,0-.32c.14-.7.29-1.4.44-2.11H36c0,.08,0,.16,0,.24-.12.59-.24,1.18-.37,1.77a1.66,1.66,0,0,0,0,.22.47.47,0,0,0,.4.51,1,1,0,0,0,1-.35,1.73,1.73,0,0,0,.38-.78l.27-1.31c0-.1,0-.2.08-.3h.33Z"/><path class="cls-1" d="M52.77,47h-.3l-.06-.17a.69.69,0,0,0-.79-.53,1.16,1.16,0,0,0-.74.36,1.86,1.86,0,0,0-.51,1.41.77.77,0,0,0,1,.77,1.22,1.22,0,0,0,.88-.78h.34c0,.07,0,.14-.07.2a1.56,1.56,0,0,1-1.64.89.89.89,0,0,1-.89-.87,2.17,2.17,0,0,1,.79-2,1.54,1.54,0,0,1,1.35-.3A.79.79,0,0,1,52.77,47Z"/><path class="cls-1" d="M7.77,44.91h.39l-.81,3.84H9.59l-.06.32H6.89Z"/><path class="cls-1" d="M17.26,46.08h.37l-1.79,3h-.4l-.51-3h.37l.42,2.46h.06s0,0,.05-.06Z"/><path class="cls-1" d="M34.1,46.37l-.38,0,0-.25.44,0,.18-.79h.33l-.16.8.55,0-.06.27h-.36c-.14,0-.21,0-.24.2-.12.6-.25,1.19-.38,1.79,0,.07,0,.14,0,.22s0,.3.26.3l.22,0c0,.26,0,.27-.22.3-.6.11-.71-.17-.6-.63.15-.65.28-1.32.42-2C34.09,46.49,34.09,46.44,34.1,46.37Z"/><path class="cls-1" d="M77.55,48.84c0,.27,0,.27-.23.3l-.19,0c-.36,0-.51-.15-.44-.51s.19-.89.28-1.34.13-.6.2-.93l-.39,0,0-.25.43,0,.19-.8h.33l-.16.8.55,0-.06.28h-.39a.18.18,0,0,0-.21.17c-.13.67-.28,1.34-.42,2,0,.26,0,.34.28.33Z"/><path class="cls-1" d="M82,46.08h.32l0,.46A1.16,1.16,0,0,1,83.33,46l0,.31-.2.05a1,1,0,0,0-.83.58,3.84,3.84,0,0,0-.25.72c-.11.45-.2.91-.3,1.38h-.34Z"/><path class="cls-1" d="M50,46l-.08.32-.19,0a1,1,0,0,0-.83.58,4.71,4.71,0,0,0-.27.8c-.09.37-.16.74-.24,1.1a1.6,1.6,0,0,1,0,.21h-.33l.63-3H49l-.06.42A1.19,1.19,0,0,1,50,46Z"/><path class="cls-1" d="M10.47,49.07h-.34L11,44.92h.35Z"/><path class="cls-1" d="M63.81,44.92h.33l-.89,4.15H63C62.94,48.86,63.57,45.77,63.81,44.92Z"/><path class="cls-1" d="M76.44,44.92l-.88,4.15-.35,0c.28-1.41.59-2.78.88-4.17Z"/><path class="cls-1" d="M91,46.16c.05-.27.38-.41.31-.73l-.14-.07.08-.45h.39C91.57,45.64,91.42,46.08,91,46.16Z"/><path class="cls-1" d="M90.1,46.19c.05-.3.39-.43.32-.76l-.14-.07.08-.45h.43c-.07.3-.13.58-.22.86S90.39,46.06,90.1,46.19Z"/><path class="cls-1" d="M5.91,44.94c0,.26-.36.4-.29.72l.07,0,.08,0-.09.44H5.26C5.39,45.7,5.33,45.16,5.91,44.94Z"/><path class="cls-1" d="M6.48,45.65l.17.08-.09.44H6.14c.13-.47.07-1,.63-1.26a.16.16,0,0,1,0,.23A.68.68,0,0,0,6.48,45.65Z"/></svg>