<svg id="Layer_1" data-name="Layer 1" xmlns="http://www.w3.org/2000/svg" viewBox="0 0 132.77 41.27"><defs><style>.cls-1{fill:#cccccc;}</style></defs><title>Mesa de trabajo 21</title><path class="cls-1" d="M77.11,18.83a.85.85,0,0,0-1.09.36c-.55.75-1.14,1.48-1.76,2.18a7.41,7.41,0,0,1-1.17,1,1.55,1.55,0,0,1-1.48.12,8.25,8.25,0,0,1,.57-1.07c.51-.69,1.1-1.33,1.61-2,.64-.85,1.23-1.73,1.92-2.7-1.34-.05-2.53-.09-3.71-.11a.56.56,0,0,0-.36.22c-1.75,2.13-3.52,4.24-5.22,6.41a8.39,8.39,0,0,0-1.57,3.66,1,1,0,0,1-1.13.87,2.48,2.48,0,0,1-.27,0c-1-.19-1.48-.5-1.1-1.65A9.79,9.79,0,0,1,64,22.87q2.32-2.85,4.64-5.72a1.21,1.21,0,0,0,.14-.2c-.59-.05-1.12-.12-1.65-.15-.83-.05-1.66-.11-2.48-.12a.65.65,0,0,0-.49.26,45.1,45.1,0,0,1-6.81,8.75A7.34,7.34,0,0,1,53.5,28.1a4.28,4.28,0,0,1-3.69-.89,6.58,6.58,0,0,1-1-1.47c-.58.66-1.25,1.39-1.88,2.16a2.37,2.37,0,0,1-1.62.86,1.22,1.22,0,0,1-1.15-.57.85.85,0,0,1,.17-1c2.19-2.67,4.35-5.36,6.57-8a14.83,14.83,0,0,1,2.06-1.81,2.65,2.65,0,0,1,1-.42.84.84,0,0,1,.69.13.76.76,0,0,1,.07.69c-.57,1.29-1.19,2.56-1.8,3.84-.34.69-.73,1.35-1,2.05a1.13,1.13,0,0,0,0,.92,1,1,0,0,0,1.2.37,5.33,5.33,0,0,0,1.33-.66,16,16,0,0,0,2.11-1.83c1.68-1.81,3.3-3.67,5-5.52.18-.21.35-.45.53-.69L61.82,16c-.61-.76-.36-1.48.61-1.54a1,1,0,0,0,1-.87c.14-.65.26-1.3.41-1.94a4.62,4.62,0,0,1,.3-1.12c.12-.24.42-.54.64-.54a1.14,1.14,0,0,1,.8.45,2.61,2.61,0,0,1,.31,2c-.1.59-.27,1.17-.41,1.73h1.84c.84,0,1.68,0,2.53,0a1,1,0,0,0,.6-.27c.74-.76,1.46-1.56,2.19-2.33a1.55,1.55,0,0,1,1.67-.38.79.79,0,0,1,.6,1.23,10.46,10.46,0,0,1-.83,1.29c-.12.18-.26.36-.45.63l1.76.08c.51,0,1.11.17,1.5,0s.54-.84.85-1.25a2.15,2.15,0,0,1,.73-.61c.41-.19.72,0,.73.48A3.66,3.66,0,0,1,79,14a4.16,4.16,0,0,1-.22.48s.06.07.08.07c1.06.08.8.22,1.18-.71.23-.55.37-1.14.64-1.67a1.15,1.15,0,0,1,1.45-.48,1.22,1.22,0,0,1,.62,1.41c-.16.54-.36,1.07-.55,1.61l.77.37a1.19,1.19,0,0,1,.62,1.13.56.56,0,0,1-.56.6,13.64,13.64,0,0,1-1.57.1c-.26,0-.44.05-.43.41.82.07,1.64.17,2.46.2.18,0,.42-.22.54-.41.45-.7.87-1.44,1.3-2.16.26-.43.52-.85.79-1.27a.79.79,0,0,1,1-.31.65.65,0,0,1,.46.78,3.45,3.45,0,0,1-.2.9c-.23.53-.5,1-.76,1.54s-.54,1-.83,1.55c.32.13.63.22.92.36a1.31,1.31,0,0,1,.91,1.18c0,.38-.19.64-.57.58a17.61,17.61,0,0,1-1.88-.43.45.45,0,0,0-.56.15c-1.19,1.37-2.39,2.75-3.64,4.08a15.35,15.35,0,0,0-2.7,3.65,4.26,4.26,0,0,1-.82,1.11.76.76,0,0,1-.68.16,1.19,1.19,0,0,1-.46-.66,1.5,1.5,0,0,1,0-.66A11.84,11.84,0,0,1,80,21.26c.47-.45.51-.74.23-1.18a.66.66,0,0,0-.93-.28,2.77,2.77,0,0,0-1,.77c-.88,1.29-1.69,2.63-2.54,3.94a11.3,11.3,0,0,1-.81,1.19c-.33.39-.56.32-.65-.18a5,5,0,0,1,.51-3.75c.63-.95,1.41-1.79,2.13-2.68C76.93,19,77,18.94,77.11,18.83Zm.37-1.69c.36-.16.88.31,1.2-.39C78.21,16.9,77.72,16.51,77.48,17.14Z"/><path class="cls-1" d="M32.93,20.42a3.85,3.85,0,0,1,.24-.5c.3-.45.62-.89.93-1.34a6.86,6.86,0,0,0,1.3-2.85,1.74,1.74,0,0,0-1.07-2,5.83,5.83,0,0,0-1.83-.44,69.76,69.76,0,0,0-10.12.12,45.81,45.81,0,0,0-7.18,1,8.47,8.47,0,0,0-3.72,2,1.35,1.35,0,0,0-.48.89c0,.42.52.5.89.52s1,0,1.53,0c2,.05,4,.06,6,.2a33.13,33.13,0,0,1,7.77,1.35,22.23,22.23,0,0,1,3,1.28,4.33,4.33,0,0,1,1.18,1A1.61,1.61,0,0,1,31.23,24a6.69,6.69,0,0,1-3.18,1.63c-1.54.37-3.1.61-4.65.88A36.58,36.58,0,0,0,15.33,29,73.47,73.47,0,0,0,3.42,35.45,27,27,0,0,1,.91,36.87a2.64,2.64,0,0,1-.9.07,2.84,2.84,0,0,1,0-.93,9.13,9.13,0,0,1,2.06-3,26,26,0,0,1,7.66-5.12,56.61,56.61,0,0,1,12.88-4.2c.94-.18,1.91-.15,2.87-.26.32,0,.81-.09.91-.29.18-.37-.24-.63-.51-.85A6.16,6.16,0,0,0,23,21.23c-2.23-.32-4.47-.61-6.72-.83-2.09-.21-4.21-.27-6.3-.48a6,6,0,0,1-2-.62A1.88,1.88,0,0,1,7,17a5.08,5.08,0,0,1,1.78-2.81,8,8,0,0,1,2.67-1.49,47.17,47.17,0,0,1,11-2.13,54.5,54.5,0,0,1,9.3,0,19.93,19.93,0,0,1,3.5.63,3,3,0,0,1,2,4.67,9.1,9.1,0,0,1-1.36,1.91c-.72.8-1.54,1.52-2.33,2.26a3.78,3.78,0,0,1-.56.4Z"/><path class="cls-1" d="M125.21,0c.24.06.48.09.72.17A7.43,7.43,0,0,1,129.78,3a15.73,15.73,0,0,1,2.93,7.39A12.35,12.35,0,0,1,132.2,15a17,17,0,0,1-6.28,9.8,22.92,22.92,0,0,1-7.54,3.39,22.38,22.38,0,0,1-6.81,1,17.25,17.25,0,0,1-5.69-1.09,6.89,6.89,0,0,1-1.42-.86c-.53-.4-.74-.46-1.34-.16l-.13.06c-.69.33-.89.2-.92-.55a6.33,6.33,0,0,1,.66-3c.86-1.79,1.75-3.57,2.63-5.35a1.42,1.42,0,0,1,1-.75,12,12,0,0,1,1.47-.17c.35,0,.57.18.47.53a4.9,4.9,0,0,1-.48,1.16c-.27.48-.62.93-.91,1.4-.07.11-.14.35-.08.4a.57.57,0,0,0,.44.12c1.17-.28,2.35-.53,3.49-.88a3.79,3.79,0,0,0,1.23-.82A13.15,13.15,0,0,0,113.17,18a.87.87,0,0,0,.06-1.33,6.27,6.27,0,0,0-1.61-1.26,14.83,14.83,0,0,0-4.84-1.37,5.61,5.61,0,0,1-1.14-.29c-.12,0-.2-.22-.31-.34.12-.1.22-.26.36-.29a4.13,4.13,0,0,1,.93-.09,14.34,14.34,0,0,1,8.55,2.6,7.94,7.94,0,0,1,1.36,1.17,1.33,1.33,0,0,1,.1,1.82,5.35,5.35,0,0,1-.86,1c-.79.72-1.6,1.43-2.43,2.1a9.46,9.46,0,0,1-4.26,1.74c-.66.13-1.34.22-2,.36a2.68,2.68,0,0,0-.81.36.81.81,0,0,0-.3.93.73.73,0,0,0,.7.59c1.2.12,2.39.31,3.59.34.82,0,1.65-.23,2.47-.23,1.06,0,2.12.13,3.18.2a2.25,2.25,0,0,0,.58,0c1.8-.46,3.61-.92,5.41-1.41a9.73,9.73,0,0,0,4.76-3,15.64,15.64,0,0,0,4.26-11.15,10.41,10.41,0,0,0-1.47-4.92A17.14,17.14,0,0,0,125.84,1a9.35,9.35,0,0,1-.74-.8Z"/><path class="cls-1" d="M87,25a5.71,5.71,0,0,0,.68-.09,9.78,9.78,0,0,0,1.43-.41,9.33,9.33,0,0,1,6.8,0c.43.14.85.29,1.27.45.64.24.75.67.29,1.18a3.12,3.12,0,0,1-2.21,1,9.94,9.94,0,0,1-1.89-.09,13.89,13.89,0,0,0-5.44.59c-.63.17-1.25.35-1.88.5-1.94.46-3.31-.82-2.83-2.77a6,6,0,0,1,3.21-4.21,27.45,27.45,0,0,1,3.42-1.26A1.46,1.46,0,0,0,91,18.59a5.07,5.07,0,0,0-.27-2.21,9.7,9.7,0,0,1-.3-2.17c0-.11.27-.35.41-.34a7,7,0,0,1,1.28.23,14.71,14.71,0,0,0,4.09.87c1.34,0,2.67-.11,4-.16.78,0,1.57-.06,2.35,0a1.25,1.25,0,0,1,1.18.7c.21.46.09.73-.41.83s-1,.18-1.55.27a18.07,18.07,0,0,0-2.31.43,8.05,8.05,0,0,1-3.17,0A12.53,12.53,0,0,0,94.65,17a1,1,0,0,0-.52.33c-.12.11-.16.3-.28.41A2.69,2.69,0,0,0,93,20l.54,0a33.05,33.05,0,0,1,7.57.22,2.82,2.82,0,0,1,.8.28.53.53,0,0,1,.22.89,2.29,2.29,0,0,1-1.87,1.05c-2.4,0-4.79,0-7.19.07a11,11,0,0,0-3.84.72A4.38,4.38,0,0,0,87,25Z"/><path class="cls-1" d="M49.8,16.93a4.45,4.45,0,0,1-1.06,2.93A24.57,24.57,0,0,1,45.9,22.7c-2.09,1.67-4.25,3.26-6.45,4.79a9.94,9.94,0,0,1-4.91,1.8,7.34,7.34,0,0,1-1.48-.07,1.7,1.7,0,0,1-1.25-1.55,3.69,3.69,0,0,1,.31-2.07,25.64,25.64,0,0,1,5.36-7.82,14.25,14.25,0,0,1,6.31-3.26.58.58,0,0,1,.23,0c.52,0,.91.62,1,1.44a.93.93,0,0,1-.75,1.12c-3.34.66-5.72,2.77-7.76,5.31a16.91,16.91,0,0,0-1.61,2.81c-.26.5,0,.8.51.79a2.59,2.59,0,0,0,.83-.15,23.27,23.27,0,0,0,8.63-5.39,39.34,39.34,0,0,0,3-3.07,5.09,5.09,0,0,0,.59-1.67c.08-.26,0-.63.4-.66a.66.66,0,0,1,.7.58C49.65,16.05,49.72,16.49,49.8,16.93Z"/><path class="cls-1" d="M52.23,2.75a4,4,0,0,1,.38,2.41,12.66,12.66,0,0,1-2.9,6.16s-.06,0-.2.06a3.92,3.92,0,0,1-.23-.81,6.53,6.53,0,0,1,.34-2.84A25,25,0,0,1,52.23,2.75Z"/><path class="cls-1" d="M44.23,11.81a.93.93,0,0,1-.46-.92,8.08,8.08,0,0,1,.27-2,12.63,12.63,0,0,1,2.43-4A4.4,4.4,0,0,1,46.82,6a5.56,5.56,0,0,1-.15,1.73A10.21,10.21,0,0,1,44.23,11.81Z"/><path class="cls-1" d="M85.56,37.75c-.16,1.08-.29,2-.45,3,0,.15-.2.27-.3.4-.06-.16-.18-.34-.16-.49.16-1.24.34-2.48.53-3.71a1.22,1.22,0,0,1,.22-.4c.12.11.29.2.35.33.46,1.1.9,2.2,1.37,3.38.39-1,.74-1.84,1.1-2.72a5.56,5.56,0,0,1,.29-.71c.06-.12.2-.19.3-.28.08.11.22.21.24.33.17,1.28.32,2.57.46,3.85,0,.14-.13.29-.19.43-.1-.13-.25-.25-.27-.39-.14-.94-.25-1.89-.45-2.86l-.78,1.94c-.13.33-.24.65-.39,1a1.93,1.93,0,0,1-.3.35,1.65,1.65,0,0,1-.31-.34l-1.1-2.72C85.69,38,85.65,38,85.56,37.75Z"/><path class="cls-1" d="M59.45,37.63v2.59a3.84,3.84,0,0,1,0,.68c0,.1-.15.18-.23.27a2.09,2.09,0,0,1-.24-.28.54.54,0,0,1,0-.22c0-1.21,0-2.41,0-3.62a1.77,1.77,0,0,1,.15-.48c.15.1.35.16.44.3.73,1,1.44,2,2.15,3l.12.08c0-.15,0-.27,0-.4,0-.87,0-1.74,0-2.61,0-.14.16-.26.25-.39.08.12.23.25.23.37q0,1.92,0,3.84a1.08,1.08,0,0,1-.16.39c-.13-.08-.3-.13-.38-.25-.68-.93-1.35-1.88-2-2.83C59.71,38,59.62,37.85,59.45,37.63Z"/><path class="cls-1" d="M55.54,36.56a2.31,2.31,0,1,1-2.34,2.3A2.31,2.31,0,0,1,55.54,36.56Zm1.79,2.33a1.82,1.82,0,1,0-1.81,1.81A1.81,1.81,0,0,0,57.33,38.89Z"/><path class="cls-1" d="M106.73,38.88a2.32,2.32,0,0,1-4.64,0,2.34,2.34,0,0,1,2.33-2.32A2.31,2.31,0,0,1,106.73,38.88Zm-.49,0A1.84,1.84,0,0,0,104.41,37a1.83,1.83,0,1,0,1.83,1.85Z"/><path class="cls-1" d="M34,37.63c0,1.12,0,2.1,0,3.08,0,.15-.15.31-.23.46-.08-.15-.23-.29-.23-.45,0-1.23,0-2.47,0-3.7a1.75,1.75,0,0,1,.18-.46,1.58,1.58,0,0,1,.4.31c.74,1,1.47,2.06,2.2,3.09l.09,0c0-.12,0-.22,0-.32,0-.91,0-1.81,0-2.71,0-.14.15-.28.23-.41.08.13.23.27.23.4,0,1.27,0,2.54,0,3.8a1.28,1.28,0,0,1-.14.4c-.13-.08-.31-.12-.39-.23-.68-.94-1.34-1.89-2-2.84Z"/><path class="cls-1" d="M38.05,38.84c0-.63,0-1.26,0-1.9,0-.28.11-.41.4-.4h1.17a2.32,2.32,0,0,1,0,4.63c-.4,0-.81,0-1.22,0s-.4-.13-.39-.41C38.06,40.13,38.05,39.49,38.05,38.84Zm.49,1.84c1,.07,2,.09,2.56-.88A1.84,1.84,0,0,0,41,37.73a2.27,2.27,0,0,0-2.43-.62Z"/><path class="cls-1" d="M46.23,41.27c-.18-.12-.25-.15-.29-.21a.72.72,0,0,1-.11-.19c-.18-.38-.29-1-.57-1.07a5.84,5.84,0,0,0-1.78-.06c-.09,0-.21.15-.26.26-.15.29-.26.61-.42.9-.06.11-.23.17-.35.25,0-.14-.13-.31-.08-.42.55-1.31,1.12-2.62,1.7-3.92a.46.46,0,0,1,.29-.24c.06,0,.19.13.23.23.58,1.32,1.16,2.64,1.71,4C46.35,40.88,46.26,41.05,46.23,41.27Zm-1.9-3.82-.76,1.75h1.52Z"/><path class="cls-1" d="M73.65,41c-.05.06-.11.19-.17.2a.38.38,0,0,1-.29-.15c-.17-.31-.28-.67-.46-1a.89.89,0,0,0-.42-.28c-.12-.05-.28,0-.41,0a1.33,1.33,0,0,0-1.79,1.12c0,.12-.24.2-.37.3,0-.16-.11-.36,0-.5.53-1.26,1.08-2.51,1.63-3.77a.65.65,0,0,1,.29-.3s.23.12.27.22c.58,1.31,1.14,2.62,1.71,3.93C73.61,40.79,73.62,40.85,73.65,41Zm-2-3.49-.77,1.73h1.53Z"/><path class="cls-1" d="M79.72,39.73c-.69-.24-1.06.19-1.28.9-.06.21-.1.66-.48.49s0-.45.05-.66c.5-1.18,1-2.35,1.53-3.52a1.7,1.7,0,0,1,.33-.38,2,2,0,0,1,.32.39c.53,1.2,1,2.41,1.56,3.61a.67.67,0,0,1,.1.29.94.94,0,0,1-.12.3c-.1,0-.25-.06-.29-.13a3.83,3.83,0,0,1-.37-.83.57.57,0,0,0-.73-.46C80.17,39.75,80,39.73,79.72,39.73Zm.91-.52-.77-1.75-.78,1.75Z"/><path class="cls-1" d="M99.57,37v1.56c.38,0,.75,0,1.12,0,.13,0,.24.15.37.23-.12.09-.24.24-.36.25-.36,0-.72,0-1.12,0V40.7h1.47a1.07,1.07,0,0,1,.4,0c.11,0,.18.15.27.24-.09.07-.17.21-.25.21-.72,0-1.45,0-2.17,0-.09,0-.25-.22-.25-.35,0-1.29,0-2.59,0-3.88,0-.29.14-.4.42-.39.62,0,1.24,0,1.85,0,.14,0,.27.15.41.23-.14.08-.28.22-.43.23C100.74,37,100.18,37,99.57,37Z"/><path class="cls-1" d="M29.58,38.29c0,.43,0,.85,0,1.27a1.13,1.13,0,1,0,2.25,0c0-.78,0-1.56,0-2.35a.8.8,0,0,1,0-.31,1.49,1.49,0,0,1,.24-.32c.08.1.23.21.24.32,0,.34,0,.69,0,1,0,.54,0,1.08,0,1.62a1.64,1.64,0,0,1-1.68,1.64,1.6,1.6,0,0,1-1.56-1.7c0-.83,0-1.66,0-2.48,0-.15.16-.3.24-.44.08.14.21.28.22.42C29.59,37.42,29.58,37.86,29.58,38.29Z"/><path class="cls-1" d="M46.72,38.87a2.26,2.26,0,0,1,1.33-2.09,2.21,2.21,0,0,1,2.42.28,1,1,0,0,1,.25.26.22.22,0,0,1-.28.33c-.16-.08-.3-.21-.45-.3a1.77,1.77,0,0,0-2.39.39,1.83,1.83,0,0,0,2.55,2.58c.17-.12.35-.48.58-.18s-.13.45-.32.59a2.32,2.32,0,0,1-3.69-1.86Z"/><path class="cls-1" d="M67.44,36.55a2.19,2.19,0,0,1,1.49.56c.12.11.15.32.22.48a1.19,1.19,0,0,1-.51-.09,1.93,1.93,0,0,0-1.6-.41,1.82,1.82,0,0,0-.54,3.34,1.81,1.81,0,0,0,2-.1l0,0c.19-.06.52-.22.55-.17.18.27-.08.42-.26.56a2.31,2.31,0,0,1-3.63-2.51A2.33,2.33,0,0,1,67.44,36.55Z"/><path class="cls-1" d="M75.79,36.55A1.37,1.37,0,0,1,77,37c.08.1,0,.31.05.47-.14,0-.31,0-.41-.14a1.16,1.16,0,0,0-1.37-.2c-.42.24-.45.68,0,.91s.72.3,1.08.45c.82.36,1.14.95.9,1.67a1.49,1.49,0,0,1-1.82.92,3.71,3.71,0,0,1-1-.59c-.07-.05,0-.26,0-.39.14,0,.33,0,.42.09.51.47,1,.63,1.5.32a1.19,1.19,0,0,0,.47-.74,1,1,0,0,0-.44-.69,4.66,4.66,0,0,0-1-.4c-.72-.3-1-.71-.92-1.22A1.33,1.33,0,0,1,75.79,36.55Z"/><path class="cls-1" d="M96.63,36.45a9.35,9.35,0,0,1,1,.55c.1.07.07.32.11.49a1,1,0,0,1-.44-.15A1.16,1.16,0,0,0,96,37.19a.48.48,0,0,0,0,.89c.36.18.75.3,1.12.46.8.36,1.11,1,.87,1.64a1.45,1.45,0,0,1-1.77,1,3.38,3.38,0,0,1-1-.55c-.08-.06,0-.3-.06-.46.14,0,.32.05.41.14a1.27,1.27,0,0,0,1.56.27.78.78,0,0,0,0-1.42,10.09,10.09,0,0,0-1-.38c-.74-.31-1-.71-.91-1.26A1.53,1.53,0,0,1,96.63,36.45Z"/><path class="cls-1" d="M90.69,38.29c0-.45,0-.9,0-1.35,0-.13.14-.25.22-.38.08.13.24.26.24.39,0,.86,0,1.72,0,2.58a1.11,1.11,0,0,0,.87,1.12,1.07,1.07,0,0,0,1.2-.48,1.91,1.91,0,0,0,.2-.82c0-.78,0-1.57,0-2.35,0-.15.16-.29.25-.44.07.14.22.28.22.42q0,1.29,0,2.58a1.63,1.63,0,1,1-3.25-.05C90.68,39.11,90.69,38.7,90.69,38.29Z"/><path class="cls-1" d="M25.86,37a3.25,3.25,0,0,0,0,.36c0,.37-.11.83.07,1s.66.1,1,.16a1.39,1.39,0,0,1,.39.22c-.13.09-.25.24-.39.26a9.35,9.35,0,0,1-1.07,0c0,.56,0,1.08,0,1.6,0,.17-.17.32-.25.48-.08-.16-.23-.31-.23-.47,0-1.22,0-2.44,0-3.66,0-.37.12-.52.5-.5.6,0,1.2,0,1.8,0,.13,0,.26.14.39.21-.13.09-.26.25-.39.25C27.05,37,26.48,37,25.86,37Z"/><path class="cls-1" d="M52.22,38.87c0,.63,0,1.26,0,1.89,0,.14-.15.28-.23.41-.08-.13-.24-.27-.24-.4,0-1.28,0-2.55,0-3.83,0-.13.17-.25.26-.38.07.12.21.25.21.38C52.24,37.58,52.22,38.23,52.22,38.87Z"/><path class="cls-1" d="M55.44,36.29c0-.14-.14-.3-.09-.4a8.41,8.41,0,0,1,.57-1,.32.32,0,0,1,.26-.1c.08,0,.18.19.15.23-.21.41-.44.81-.67,1.2C55.64,36.24,55.58,36.24,55.44,36.29Z"/><path class="cls-1" d="M77.48,17.14c.24-.63.73-.24,1.2-.39C78.36,17.45,77.84,17,77.48,17.14Z"/></svg>