<svg id="Layer_1" data-name="Layer 1" xmlns="http://www.w3.org/2000/svg" viewBox="0 0 98.29 56.19"><defs><style>.cls-1{fill:#cccccc;}</style></defs><title>Mesa de trabajo 20</title><path class="cls-1" d="M34.38,37.29s0,0,0,0l0,0a0,0,0,0,1,0,0s0,0,0,.05a2,2,0,0,1-.71.46,2.4,2.4,0,0,1-.92.17,2.59,2.59,0,0,1-1-.19A2.23,2.23,0,0,1,31,37.3a2.14,2.14,0,0,1-.48-.76,2.75,2.75,0,0,1-.17-.95,2.25,2.25,0,0,1,.09-.64,2,2,0,0,1,.24-.58,2.28,2.28,0,0,1,.38-.5,2.34,2.34,0,0,1,.49-.39,6.28,6.28,0,0,0-1,.12,2.84,2.84,0,0,0-.73.25,1.84,1.84,0,0,0-.52.36,1.66,1.66,0,0,0-.35.45,2,2,0,0,0-.19.53,2.88,2.88,0,0,0-.06.59,2.28,2.28,0,0,0,.05.48,1.86,1.86,0,0,0,.13.34,1.08,1.08,0,0,0,.12.22l.08.09a.06.06,0,0,1,0,.07s0,0-.07,0H29l-.18,0-.25-.07a1.18,1.18,0,0,1-.27-.11,1.15,1.15,0,0,1-.26-.19.87.87,0,0,1-.23-.27,1.25,1.25,0,0,1-.16-.37,1.73,1.73,0,0,1-.07-.48,1.91,1.91,0,0,1,.29-1,2.22,2.22,0,0,1,.79-.76,4.28,4.28,0,0,1,1.24-.46,8,8,0,0,1,1.62-.15h.23l.24,0,.22,0h.86a2.42,2.42,0,0,1,.39,0,1.24,1.24,0,0,1,.29.06.93.93,0,0,1,.2.08l.15.1a.1.1,0,0,1,0,.14.2.2,0,0,1-.18.1,3.54,3.54,0,0,1-.56,0,3.6,3.6,0,0,1-.56-.08l-.11,0-.13,0h-.14a.09.09,0,0,0-.09,0,1.14,1.14,0,0,0-.31.34,1.85,1.85,0,0,0-.2.47,2.59,2.59,0,0,0-.12.58,4.68,4.68,0,0,0,0,.66,3,3,0,0,0,.11.83,1.57,1.57,0,0,0,.33.61,1.3,1.3,0,0,0,.54.37,1.89,1.89,0,0,0,.75.14,2.59,2.59,0,0,0,.47,0A2.3,2.3,0,0,0,34.38,37.29Z"/><path class="cls-1" d="M37.25,34.7a.88.88,0,0,1,.24,0,.69.69,0,0,1,.17.1.42.42,0,0,1,.09.14,1,1,0,0,1,0,.18.34.34,0,0,1-.1.26.44.44,0,0,1-.29.09.41.41,0,0,1-.21,0,.69.69,0,0,1-.13-.11l-.1-.1a.14.14,0,0,0-.11-.05.19.19,0,0,0-.12,0,.39.39,0,0,0-.13.15,1.41,1.41,0,0,0-.1.31,3.43,3.43,0,0,0,0,.5v1.2a.43.43,0,0,0,0,.22.26.26,0,0,0,.11.12.34.34,0,0,0,.12.06l.09,0,0,0a.06.06,0,0,1,0,0l0,0H35.12s0,0,0,0,0,0,0,0l0,0,.08,0a.34.34,0,0,0,.12-.06.26.26,0,0,0,.11-.12.42.42,0,0,0,0-.22v-2a0,0,0,0,0,0,0h-.06l-.09,0-.11,0h-.05s0,0,0-.05,0,0,0,0l.29-.09a2.08,2.08,0,0,0,.32-.12l.31-.14.27-.16a.07.07,0,0,1,.06,0,0,0,0,0,1,0,0v.5a.88.88,0,0,1,.33-.4A.81.81,0,0,1,37.25,34.7Z"/><path class="cls-1" d="M39.45,36.07s-.05,0-.05.06a2.68,2.68,0,0,0,.06.61,1.11,1.11,0,0,0,.18.41.7.7,0,0,0,.3.24,1.08,1.08,0,0,0,.42.08,1.55,1.55,0,0,0,.32,0l.24-.09.17-.09.1-.06a.06.06,0,0,1,.08,0s0,.05,0,.09l-.05.08a.63.63,0,0,1-.11.15,1.36,1.36,0,0,1-.17.16,1.2,1.2,0,0,1-.25.16,1.61,1.61,0,0,1-.33.12A1.7,1.7,0,0,1,40,38a1.73,1.73,0,0,1-.63-.11,1.34,1.34,0,0,1-.49-.32,1.44,1.44,0,0,1-.3-.51,1.78,1.78,0,0,1-.11-.67,1.86,1.86,0,0,1,.13-.73,1.66,1.66,0,0,1,.36-.53,1.56,1.56,0,0,1,1.54-.36,1.39,1.39,0,0,1,.36.2,1.52,1.52,0,0,1,.25.26c.06.1.11.2.16.3a1,1,0,0,1,.08.27,1,1,0,0,1,0,.21.05.05,0,0,1,0,.05H39.45Zm0-.23s0,0,.05,0h.81a.19.19,0,0,0,.12,0,.2.2,0,0,0,.06-.16,1,1,0,0,0,0-.23,1.06,1.06,0,0,0-.09-.25.62.62,0,0,0-.15-.2.32.32,0,0,0-.23-.09.31.31,0,0,0-.19.06.67.67,0,0,0-.14.15,1.21,1.21,0,0,0-.09.2,1,1,0,0,0-.06.22,1.77,1.77,0,0,0,0,.2A1.23,1.23,0,0,1,39.41,35.84Z"/><path class="cls-1" d="M45.27,37.59a.06.06,0,0,1,.07,0,.08.08,0,0,1,0,.08l-.07.09a.49.49,0,0,1-.13.1A.69.69,0,0,1,45,38a1,1,0,0,1-.26,0,.69.69,0,0,1-.36-.09.48.48,0,0,1-.2-.2s0,0,0,0a.05.05,0,0,0,0,0l-.07.06-.15.1-.24.1a1.47,1.47,0,0,1-.32,0,1.35,1.35,0,0,1-.52-.09,1.05,1.05,0,0,1-.34-.22.84.84,0,0,1-.19-.31,1.4,1.4,0,0,1,0-.34.76.76,0,0,1,.15-.48.94.94,0,0,1,.4-.31,1.28,1.28,0,0,1,.28-.07l.29,0,.28-.06a1.15,1.15,0,0,0,.25-.12.42.42,0,0,0,.18-.22.71.71,0,0,0,.05-.29A.57.57,0,0,0,44,35l-.12-.12a.36.36,0,0,0-.38,0,.86.86,0,0,0-.11.19l-.07.22a.43.43,0,0,1-.11.2.34.34,0,0,1-.16.1l-.19,0a.43.43,0,0,1-.17,0,.57.57,0,0,1-.13-.08.33.33,0,0,1-.07-.13.33.33,0,0,1,0-.15.54.54,0,0,1,.05-.21.52.52,0,0,1,.19-.2,1.23,1.23,0,0,1,.36-.14,2.32,2.32,0,0,1,.57,0,2.13,2.13,0,0,1,.66.08,1.07,1.07,0,0,1,.44.22.84.84,0,0,1,.25.37,1.35,1.35,0,0,1,.08.5c0,.23,0,.44,0,.64s0,.37,0,.52,0,.28,0,.38a.21.21,0,0,0,.1.18.13.13,0,0,0,.09,0ZM44.06,36s0,0,0,0h0l0,.06-.06.07-.13.13-.14.12-.14.11-.13.12a.82.82,0,0,0-.18.49.58.58,0,0,0,0,.19.46.46,0,0,0,.09.17.41.41,0,0,0,.14.12.38.38,0,0,0,.22,0,.39.39,0,0,0,.2,0,.49.49,0,0,0,.12-.13.35.35,0,0,0,.06-.14.74.74,0,0,0,0-.12Z"/><path class="cls-1" d="M51.88,37.81l0,0a.06.06,0,0,1,0,0l0,0H50.19s0,0,0,0a.06.06,0,0,1,0,0l0,0,.08,0a.34.34,0,0,0,.12-.06.26.26,0,0,0,.11-.12.42.42,0,0,0,0-.22v-1.6a1.43,1.43,0,0,0,0-.29.73.73,0,0,0-.08-.25.46.46,0,0,0-.16-.18A.49.49,0,0,0,50,35a.44.44,0,0,0-.25,0,.32.32,0,0,0-.15.13.45.45,0,0,0-.07.18.76.76,0,0,0,0,.21v1.82a.42.42,0,0,0,0,.22.26.26,0,0,0,.11.12.34.34,0,0,0,.12.06l.08,0,0,0a.06.06,0,0,1,0,0s0,0,0,0H48.2l0,0a.06.06,0,0,1,0,0l0,0,.09,0a.34.34,0,0,0,.12-.06.26.26,0,0,0,.11-.12.43.43,0,0,0,0-.22V35.78c0-.09,0-.18,0-.28a.73.73,0,0,0-.08-.25.49.49,0,0,0-.17-.18.62.62,0,0,0-.53,0,.47.47,0,0,0-.15.13.62.62,0,0,0-.07.19,1.23,1.23,0,0,0,0,.2v1.82a.43.43,0,0,0,0,.22.33.33,0,0,0,.11.12.34.34,0,0,0,.12.06l.09,0,0,0a.06.06,0,0,1,0,0s0,0,0,0H46.22s0,0,0,0a.06.06,0,0,1,0,0l0,0,.08,0a.34.34,0,0,0,.12-.06.22.22,0,0,0,.11-.12.42.42,0,0,0,0-.22v-2a0,0,0,0,0,0,0h0l-.1,0-.1,0h-.06s0,0,0-.05,0,0,0,0l.29-.09a1.75,1.75,0,0,0,.32-.12l.31-.14.27-.16a.07.07,0,0,1,.06,0s0,0,0,0V35a1.32,1.32,0,0,1,.89-.29,1.83,1.83,0,0,1,.35,0,1.07,1.07,0,0,1,.27.09.91.91,0,0,1,.19.13.7.7,0,0,1,.13.17l.18-.15a1.28,1.28,0,0,1,.23-.14,1.63,1.63,0,0,1,.29-.1,1.83,1.83,0,0,1,.35,0,1.63,1.63,0,0,1,.47.06.92.92,0,0,1,.31.17.69.69,0,0,1,.18.24,1.31,1.31,0,0,1,.09.28,1.36,1.36,0,0,1,0,.29,2.44,2.44,0,0,1,0,.27h0v1.37a.43.43,0,0,0,0,.22.26.26,0,0,0,.11.12.34.34,0,0,0,.12.06Z"/><path class="cls-1" d="M54.37,34.7a1.76,1.76,0,0,1,.66.12,1.7,1.7,0,0,1,.52.35,1.65,1.65,0,0,1,.33.52,1.53,1.53,0,0,1,.13.64,1.58,1.58,0,0,1-.14.65,1.47,1.47,0,0,1-.36.53,1.7,1.7,0,0,1-.54.36,1.63,1.63,0,0,1-.67.13,1.65,1.65,0,0,1-.66-.13,1.41,1.41,0,0,1-.51-.35,1.52,1.52,0,0,1-.34-.51,1.73,1.73,0,0,1-.12-.64,1.57,1.57,0,0,1,.13-.65,1.77,1.77,0,0,1,.36-.53,2,2,0,0,1,.54-.36A1.67,1.67,0,0,1,54.37,34.7Zm0,3.11a.39.39,0,0,0,.29-.11.87.87,0,0,0,.2-.31,2,2,0,0,0,.13-.47,4.08,4.08,0,0,0,0-1.14,1.88,1.88,0,0,0-.13-.47.79.79,0,0,0-.2-.31.41.41,0,0,0-.58,0,.93.93,0,0,0-.21.31,1.89,1.89,0,0,0-.12.47,4.08,4.08,0,0,0,0,1.14,2,2,0,0,0,.12.47,1.05,1.05,0,0,0,.21.31A.39.39,0,0,0,54.34,37.81Z"/><path class="cls-1" d="M57,37.67a.67.67,0,0,0,0-.1,1.18,1.18,0,0,1,0-.2l0-.21,0-.12s0-.06,0-.06a0,0,0,0,1,0,0l.05.07a.92.92,0,0,0,.11.15l.18.2a1.37,1.37,0,0,0,.22.19,1.51,1.51,0,0,0,.28.15.86.86,0,0,0,.32.05.43.43,0,0,0,.31-.1.38.38,0,0,0,.12-.29.57.57,0,0,0,0-.18.54.54,0,0,0-.1-.18,1.15,1.15,0,0,0-.23-.18,2.59,2.59,0,0,0-.4-.18,1.57,1.57,0,0,1-.39-.19,1.18,1.18,0,0,1-.25-.25A.83.83,0,0,1,57,36a1.14,1.14,0,0,1-.05-.33,1.17,1.17,0,0,1,.05-.3.67.67,0,0,1,.18-.3,1,1,0,0,1,.34-.24,1.53,1.53,0,0,1,.56-.09,2.41,2.41,0,0,1,.4,0,1.86,1.86,0,0,1,.32.08l.22.08.1,0,0,0v0a.58.58,0,0,0,0,.1,1.06,1.06,0,0,1,0,.19l0,.2a.23.23,0,0,1,0,.09s0,0,0,.05,0,0-.06,0a1.55,1.55,0,0,0-.15-.18,1.85,1.85,0,0,0-.59-.44,1,1,0,0,0-.38-.08.43.43,0,0,0-.32.11.4.4,0,0,0-.1.28.78.78,0,0,0,0,.16.36.36,0,0,0,.11.15.91.91,0,0,0,.23.15,2.45,2.45,0,0,0,.4.15,1.81,1.81,0,0,1,.77.43.9.9,0,0,1,.26.69,1.09,1.09,0,0,1-.07.4.87.87,0,0,1-.23.31,1,1,0,0,1-.39.21,1.79,1.79,0,0,1-.56.08,2.43,2.43,0,0,1-.49,0l-.36-.09a1.1,1.1,0,0,1-.23-.09l-.1-.06v0Z"/><path class="cls-1" d="M63.45,34.16a22.6,22.6,0,0,1-.34,2.94,8.71,8.71,0,0,1-.59,2,2.78,2.78,0,0,1-.83,1.11,1.66,1.66,0,0,1-1,.35,1.1,1.1,0,0,1-.51-.1.89.89,0,0,1-.33-.27,1.21,1.21,0,0,1-.18-.38,1.37,1.37,0,0,1,0-.4s0-.06,0-.07,0,0,.07,0l.08.07.1.06.14,0h.19a1.14,1.14,0,0,0,.57-.17,2.21,2.21,0,0,0,.56-.44,4.72,4.72,0,0,0,.52-.67,6.45,6.45,0,0,0,.46-.82,9.1,9.1,0,0,0,.4-.9,9.26,9.26,0,0,0,.3-.94,7.46,7.46,0,0,0,.19-.89,4.62,4.62,0,0,0,.07-.79.58.58,0,0,0,0-.19.34.34,0,0,0-.09-.14.4.4,0,0,0-.12-.1l-.13-.07-.12,0-.1,0,0,0,0,0a.05.05,0,0,1,0,0h1.67l.09,0s0,0,.05.06a2.08,2.08,0,0,1,.06.24c0,.1.06.22.09.34s.07.26.1.41.08.28.11.42.07.28.11.41.06.25.09.36l.07.26a.4.4,0,0,0,0,.13s0,0,0,0,0,0,0,0a1.06,1.06,0,0,0,.05-.12l.1-.26c0-.1.09-.22.15-.36s.1-.27.16-.41.12-.29.17-.43l.16-.41.14-.35c0-.1.07-.18.1-.24a.14.14,0,0,1,.14-.08h1.53s0,0,.06,0,0,0,0,0a.08.08,0,0,1,0,0,.05.05,0,0,1,0,0l-.14,0-.18.08a.81.81,0,0,0-.16.16.45.45,0,0,0-.07.27v3.4a.44.44,0,0,0,.07.26.61.61,0,0,0,.16.16.48.48,0,0,0,.18.08l.14,0s0,0,0,0l0,0a.08.08,0,0,1,0,0H65.57a0,0,0,0,1,0,0s0,0,0,0,0,0,0,0l.13,0a.48.48,0,0,0,.18-.08.49.49,0,0,0,.16-.16.44.44,0,0,0,.07-.26V34s0,0,0,0,0,0,0,0,0,.05-.06.12-.06.18-.11.3l-.17.43q-.11.24-.21.51c-.07.18-.14.37-.22.56s-.15.37-.22.55l-.2.51c-.07.16-.12.3-.17.42l-.12.29-.05.12a.06.06,0,0,1-.1,0,1,1,0,0,1,0-.17c0-.1-.06-.24-.11-.41s-.09-.37-.15-.59-.11-.44-.17-.67-.11-.45-.17-.67-.1-.41-.15-.59-.08-.31-.1-.42a1.45,1.45,0,0,0-.06-.19s0,0,0,0S63.45,34.13,63.45,34.16Z"/><path class="cls-1" d="M70.4,34.7a1.76,1.76,0,0,1,.66.12,1.7,1.7,0,0,1,.52.35,1.65,1.65,0,0,1,.33.52,1.69,1.69,0,0,1,.12.64,1.57,1.57,0,0,1-.13.65,1.77,1.77,0,0,1-.36.53,1.7,1.7,0,0,1-.54.36,1.67,1.67,0,0,1-.67.13,1.59,1.59,0,0,1-.66-.13,1.41,1.41,0,0,1-.51-.35,1.39,1.39,0,0,1-.34-.51,1.73,1.73,0,0,1-.12-.64,1.57,1.57,0,0,1,.13-.65,1.77,1.77,0,0,1,.36-.53,1.7,1.7,0,0,1,.54-.36A1.67,1.67,0,0,1,70.4,34.7Zm0,3.11a.41.41,0,0,0,.29-.11.87.87,0,0,0,.2-.31,1.62,1.62,0,0,0,.12-.47,3.27,3.27,0,0,0,0-1.14,1.54,1.54,0,0,0-.12-.47.79.79,0,0,0-.2-.31.42.42,0,0,0-.29-.12.38.38,0,0,0-.29.12.71.71,0,0,0-.21.31,1.54,1.54,0,0,0-.12.47,4.08,4.08,0,0,0,0,1.14,1.62,1.62,0,0,0,.12.47.77.77,0,0,0,.21.31A.38.38,0,0,0,70.37,37.81Z"/><path class="cls-1" d="M78.56,37.81l0,0s0,0,0,0,0,0,0,0H76.86l0,0s0,0,0,0l0,0,.09,0a.34.34,0,0,0,.12-.06.26.26,0,0,0,.11-.12.43.43,0,0,0,0-.22v-1.6a1.42,1.42,0,0,0,0-.29.73.73,0,0,0-.08-.25.46.46,0,0,0-.16-.18A.52.52,0,0,0,76.7,35a.49.49,0,0,0-.25,0,.35.35,0,0,0-.14.13.71.71,0,0,0-.08.18,1.49,1.49,0,0,0,0,.21v1.82a.34.34,0,0,0,.05.22.25.25,0,0,0,.1.12.34.34,0,0,0,.12.06l.09,0,0,0a.06.06,0,0,1,0,0s0,0,0,0H74.88s0,0,0,0a.06.06,0,0,1,0,0l0,0,.09,0a.34.34,0,0,0,.12-.06.25.25,0,0,0,.1-.12.42.42,0,0,0,0-.22V35.78c0-.09,0-.18,0-.28a1,1,0,0,0-.08-.25.48.48,0,0,0-.45-.25.44.44,0,0,0-.25,0,.47.47,0,0,0-.15.13.44.44,0,0,0-.07.19,1.2,1.2,0,0,0,0,.2v1.82a.42.42,0,0,0,0,.22.26.26,0,0,0,.11.12.34.34,0,0,0,.12.06l.09,0,0,0s0,0,0,0a0,0,0,0,1,0,0H72.89a0,0,0,0,1,0,0s0,0,0,0l0,0,.09,0a.34.34,0,0,0,.12-.06.26.26,0,0,0,.11-.12.42.42,0,0,0,.05-.22v-2a0,0,0,0,0-.05,0h0l-.1,0-.1,0h-.06a.05.05,0,0,1,0-.05s0,0,0,0l.29-.09a2.08,2.08,0,0,0,.32-.12l.31-.14.27-.16a.07.07,0,0,1,.06,0s0,0,0,0V35a1.71,1.71,0,0,1,.38-.21,1.58,1.58,0,0,1,.52-.08,1.83,1.83,0,0,1,.35,0,.88.88,0,0,1,.26.09,1,1,0,0,1,.2.13,1.09,1.09,0,0,1,.13.17l.18-.15a1,1,0,0,1,.23-.14,1.83,1.83,0,0,1,.28-.1,1.9,1.9,0,0,1,.35,0,1.53,1.53,0,0,1,.47.06.83.83,0,0,1,.31.17.61.61,0,0,1,.19.24,1.31,1.31,0,0,1,.09.28,1.36,1.36,0,0,1,0,.29V36h0v1.37a.42.42,0,0,0,0,.22.26.26,0,0,0,.11.12l.12.06Z"/><path class="cls-1" d="M80.4,36.07a.05.05,0,0,0-.06.06,2.63,2.63,0,0,0,.07.61,1.11,1.11,0,0,0,.18.41.7.7,0,0,0,.3.24,1.07,1.07,0,0,0,.41.08,1.47,1.47,0,0,0,.32,0l.25-.09.17-.09a.28.28,0,0,1,.1-.06s.06,0,.07,0,0,.05,0,.09,0,0,0,.08l-.11.15-.17.16a1.2,1.2,0,0,1-.25.16,1.61,1.61,0,0,1-.33.12,1.79,1.79,0,0,1-.42,0,1.81,1.81,0,0,1-.63-.11,1.39,1.39,0,0,1-.48-.32,1.62,1.62,0,0,1-.31-.51,2,2,0,0,1-.11-.67,1.86,1.86,0,0,1,.14-.73,1.81,1.81,0,0,1,.35-.53,1.58,1.58,0,0,1,.5-.32,1.44,1.44,0,0,1,.57-.11,1.43,1.43,0,0,1,.48.07,1.33,1.33,0,0,1,.35.2,1.22,1.22,0,0,1,.25.26,1.46,1.46,0,0,1,.16.3,1.71,1.71,0,0,1,.09.27.9.9,0,0,1,0,.21s0,0,0,.05H80.4Zm0-.23s0,0,0,0h.82a.19.19,0,0,0,.12,0,.2.2,0,0,0,.06-.16,1,1,0,0,0,0-.23,1.06,1.06,0,0,0-.09-.25.62.62,0,0,0-.15-.2.33.33,0,0,0-.23-.09.31.31,0,0,0-.19.06.67.67,0,0,0-.14.15.72.72,0,0,0-.09.2c0,.08,0,.15-.07.22l0,.2A1.05,1.05,0,0,0,80.36,35.84Z"/><path class="cls-1" d="M87,37.81l0,0a.06.06,0,0,1,0,0s0,0,0,0H85.19s0,0,0,0a.06.06,0,0,1,0,0l0,0,.1,0a.61.61,0,0,0,.14-.07.43.43,0,0,0,.18-.35v-1.5c0-.1,0-.2,0-.3a1,1,0,0,0-.08-.28.46.46,0,0,0-.18-.21.49.49,0,0,0-.31-.08.51.51,0,0,0-.32.08.58.58,0,0,0-.16.19.77.77,0,0,0-.07.26c0,.09,0,.16,0,.23v1.61a.43.43,0,0,0,.18.35.61.61,0,0,0,.14.07l.1,0,0,0a.06.06,0,0,1,0,0l0,0H83.11s0,0,0,0,0,0,0,0l0,0,.09,0a.46.46,0,0,0,.14-.07.4.4,0,0,0,.13-.13.48.48,0,0,0,0-.22V35.43s0,0,0,0h-.05l-.1,0-.1,0H83.2a.08.08,0,0,1,0-.05s0,0,.06,0l.29-.09.32-.12.31-.14.26-.16a.1.1,0,0,1,.07,0s0,0,0,0V35l.17-.13a1,1,0,0,1,.21-.1,1.6,1.6,0,0,1,.26-.08l.32,0a1.53,1.53,0,0,1,.47.06,1,1,0,0,1,.33.17.88.88,0,0,1,.19.24,1.33,1.33,0,0,1,.1.28,1.36,1.36,0,0,1,0,.29,2.44,2.44,0,0,1,0,.27h0v1.35a.38.38,0,0,0,0,.22.4.4,0,0,0,.13.13.46.46,0,0,0,.14.07Z"/><path class="cls-1" d="M89.89,37.41s.07,0,.09,0a.08.08,0,0,1,0,.08,1,1,0,0,1-.16.2,1,1,0,0,1-.22.16,1.17,1.17,0,0,1-.26.1A1.06,1.06,0,0,1,89,38a1.33,1.33,0,0,1-.34,0,.77.77,0,0,1-.31-.16.91.91,0,0,1-.22-.31,1.52,1.52,0,0,1-.08-.51V35s0,0,0,0H88a.16.16,0,0,1-.1,0s0,0,0,0a.16.16,0,0,1,0-.1.14.14,0,0,1,.1,0h.07s0,0,0,0v-.84a.07.07,0,0,1,.06-.08l.19-.05.2-.07a.88.88,0,0,0,.2-.09l.18-.09a.06.06,0,0,1,.07,0s0,0,0,.07v1.16s0,0,0,0h.76a.08.08,0,0,1,0,.05.21.21,0,0,1-.16.15H89s0,0,0,0v2.14a.41.41,0,0,0,0,.16.27.27,0,0,0,.09.12.25.25,0,0,0,.12.08.39.39,0,0,0,.15,0,.77.77,0,0,0,.27,0Z"/><path class="cls-1" d="M92.41,34.7a1.76,1.76,0,0,1,.66.12,1.7,1.7,0,0,1,.52.35,1.65,1.65,0,0,1,.33.52,1.53,1.53,0,0,1,.13.64,1.58,1.58,0,0,1-.14.65,1.47,1.47,0,0,1-.36.53,1.7,1.7,0,0,1-.54.36,1.63,1.63,0,0,1-.67.13,1.65,1.65,0,0,1-.66-.13,1.41,1.41,0,0,1-.51-.35,1.52,1.52,0,0,1-.34-.51,1.73,1.73,0,0,1-.12-.64,1.57,1.57,0,0,1,.13-.65,1.77,1.77,0,0,1,.36-.53,2,2,0,0,1,.54-.36A1.67,1.67,0,0,1,92.41,34.7Zm0,3.11a.39.39,0,0,0,.29-.11.87.87,0,0,0,.2-.31,2,2,0,0,0,.13-.47,4.08,4.08,0,0,0,0-1.14,1.88,1.88,0,0,0-.13-.47.79.79,0,0,0-.2-.31.41.41,0,0,0-.58,0,.93.93,0,0,0-.21.31,1.89,1.89,0,0,0-.12.47,4.08,4.08,0,0,0,0,1.14,2,2,0,0,0,.12.47,1.05,1.05,0,0,0,.21.31A.39.39,0,0,0,92.38,37.81Z"/><path class="cls-1" d="M95,37.67a.35.35,0,0,0,0-.1l0-.2,0-.21c0-.07,0-.11,0-.12s0-.06,0-.06a0,0,0,0,1,0,0l0,.07.12.15.17.2a2.11,2.11,0,0,0,.23.19,1.51,1.51,0,0,0,.28.15.86.86,0,0,0,.32.05.43.43,0,0,0,.31-.1.38.38,0,0,0,.11-.29.55.55,0,0,0,0-.18.54.54,0,0,0-.1-.18,1.15,1.15,0,0,0-.23-.18,2.59,2.59,0,0,0-.4-.18,1.57,1.57,0,0,1-.39-.19,1.18,1.18,0,0,1-.25-.25.83.83,0,0,1-.14-.3,1.14,1.14,0,0,1,0-.33,1.17,1.17,0,0,1,0-.3.67.67,0,0,1,.18-.3,1,1,0,0,1,.34-.24,1.53,1.53,0,0,1,.56-.09,2.41,2.41,0,0,1,.4,0l.32.08.22.08.09,0,0,0v0a.58.58,0,0,0,0,.1,1.06,1.06,0,0,1,0,.19l0,.2,0,.09s0,0,0,.05,0,0-.06,0a1.55,1.55,0,0,0-.15-.18,2.05,2.05,0,0,0-.26-.24,2.63,2.63,0,0,0-.33-.2,1,1,0,0,0-.39-.08.42.42,0,0,0-.31.11.4.4,0,0,0-.1.28.78.78,0,0,0,0,.16.36.36,0,0,0,.11.15.91.91,0,0,0,.23.15,2.45,2.45,0,0,0,.4.15,1.81,1.81,0,0,1,.77.43.94.94,0,0,1,.26.69,1.09,1.09,0,0,1-.07.4.87.87,0,0,1-.23.31,1,1,0,0,1-.39.21,1.84,1.84,0,0,1-.56.08,2.43,2.43,0,0,1-.49,0l-.36-.09a1.1,1.1,0,0,1-.23-.09l-.1-.06v0Z"/><path class="cls-1" d="M56.43,18.8q-.95-1-1.86-2c-.62-.66-1.21-1.35-1.81-2l-.48-.53L53,14a49.36,49.36,0,0,1,5.71-1.6,46.21,46.21,0,0,1,5.89-.88,29.09,29.09,0,0,1,6,.1,14.51,14.51,0,0,1,5.93,2l.79.5-.4.81c-.61,1.25-1.2,2.54-1.76,3.83s-1.14,2.59-1.68,3.89-1,2.63-1.5,4A22,22,0,0,0,71,30.72a15.28,15.28,0,0,1,.24-4.32,37.76,37.76,0,0,1,1-4.21c.39-1.39.85-2.75,1.33-4.11s1.6-4.2,1.6-4.2a13.17,13.17,0,0,0-4.28-1.14,34,34,0,0,0-5.63-.22,53,53,0,0,0-6.11.76,28.9,28.9,0,0,0-4.87,1.35,9.19,9.19,0,0,0,.8,1.85C55.51,17.24,56,18,56.43,18.8Z"/><path class="cls-1" d="M50.54,26.49a4.38,4.38,0,0,0-4.45-4.39,4.44,4.44,0,0,0-4.33,4.33,4.38,4.38,0,0,0,4.39,4.45,4.56,4.56,0,0,0,1.57-.29v.29h2.49a.33.33,0,0,0,.33-.33V26.49Zm-4.21,3.14c-.76,0-1.38-1.41-1.38-3.14s.62-3.14,1.38-3.14,1.39,1.41,1.39,3.14S47.1,29.63,46.33,29.63Z"/><path class="cls-1" d="M32.12,22.1a4.39,4.39,0,1,0,4.39,4.39A4.38,4.38,0,0,0,32.12,22.1Zm.18,7.53c-.76,0-1.38-1.41-1.38-3.14s.62-3.14,1.38-3.14,1.39,1.41,1.39,3.14S33.07,29.63,32.3,29.63Z"/><path class="cls-1" d="M44.06,28.36,42.55,28a2.61,2.61,0,0,1-2.06-.59h0V17.88l1.09.61a.47.47,0,0,0,.64-.18h0a.47.47,0,0,0-.18-.64l-1.55-.87V13.13H37.66v2.08l-1.14-.64a.47.47,0,0,0-.64.18h0a.47.47,0,0,0,.18.64l1.6.9V27.45h0a2,2,0,0,1-1.58.45c-1.15-.24-2.58-1.57-4.2-4.39l-.95.45c.24,2.63,1.84,4,3.06,5.22.31.29-.84.34.48.45l.42.27a6.73,6.73,0,0,0,4.11,0,.22.22,0,0,1,.16,0c.4.22,1.8.6,4.44.14l1.09-.14c-.8-.16-.37-.49,0-1.63A3.08,3.08,0,0,1,44.06,28.36Z"/><path class="cls-1" d="M55.75,21.1a.48.48,0,0,1,.55,0c.81.62,3.1,2.63,3.21,5.37.13,3.32-3.37,4.39-4.21,4.39a4.41,4.41,0,0,1-3-1.05c-1-.88,1.2-.33,1.2-.33a3.62,3.62,0,0,0,1.83.13,1.45,1.45,0,0,0,1.06-1.13,1.43,1.43,0,0,0,0-.91c-.19-.58-.83-1.83-1.6-1.83a1,1,0,0,0-1.12.73.3.3,0,0,1-.3.23h-.54a.3.3,0,0,1-.31-.36A8.07,8.07,0,0,1,55.75,21.1Z"/><path class="cls-1" d="M52.14,16.6h0a1.69,1.69,0,0,0-3,.48,1.68,1.68,0,0,0,0,1.19,1.69,1.69,0,0,0-.52,3.29,1.35,1.35,0,0,0,.4.08h0c3.34.28,1.87,4.41,3.36.48S52.14,16.6,52.14,16.6Z"/><path class="cls-1" d="M21.92,22.73s8.52-1,11.09-.49-4.52.37-11.25,1.67C18.2,24.59,21.92,22.73,21.92,22.73Z"/><path class="cls-1" d="M22.75,1.27a3.65,3.65,0,0,0-2-1.14c-3.89-.69-7.46,1.44-9.45,5.43a12.31,12.31,0,0,0-.74,1.78,17.82,17.82,0,0,0-.91,5.92v.15a.28.28,0,0,0,0,.09.62.62,0,0,0,0,.13v0a1.29,1.29,0,0,0,2.56,0h0c0-.1,0-.21,0-.34.21-2,1-7,3.46-7,3.13,0,6.21,3,6.21,16.44a27.56,27.56,0,0,0-5.2,1.48c-.39.14-.77.3-1.14.47a26.23,26.23,0,0,0-3.1,1.64l-.64.4c-.45.28-.88.58-1.31.89a25,25,0,0,0-5.06,5A26.29,26.29,0,0,0,1.3,39.88a20.79,20.79,0,0,0-1,3.44.06.06,0,0,0,0,0A17.45,17.45,0,0,0,0,46.61C-.12,57,9.83,56.17,9.83,56.17q4.92,0,8.89-5.61a33.49,33.49,0,0,0,3.35-6.28,55.36,55.36,0,0,0,2.73-8.53,63.43,63.43,0,0,0,1.8-9.06c.1-.81.41-3,.49-3.75l.06-3.78C27.12,17.56,27.12,5.84,22.75,1.27ZM14.9,49.47q-3.2,5.61-6.78,5.38a8.28,8.28,0,0,1-2.6-.53l-.47-.2L4.8,54l-.29-.16-.14-.09c-2.34-1.53-3-4.22-3.2-6.45a16.78,16.78,0,0,1,0-1.73h0a15.15,15.15,0,0,1,.17-1.65,22.43,22.43,0,0,1,.86-3.33,24.73,24.73,0,0,1,3.86-7,26.23,26.23,0,0,1,4.28-4.35c.39-.33.8-.64,1.22-.95s.69-.5,1-.74a22,22,0,0,1,2.85-1.61c.36-.17.73-.34,1.1-.49a25.41,25.41,0,0,1,5.21-1.48c-.21,1.77-.45,3.49-.72,5.17q-.08.53-.18,1.05c-.51,3-1.14,5.85-1.87,8.55l-.12.45c-.15.51-.28,1-.43,1.49h0a53.41,53.41,0,0,1-2.35,6.45c-.17.37-.33.74-.5,1.08S15.13,49.06,14.9,49.47Z"/><path class="cls-1" d="M63.21,21.22a3.39,3.39,0,0,1,1.7,1.48A3.67,3.67,0,0,1,65.08,26c-.62,1.62-.61,1.13-.61,1.13"/><path class="cls-1" d="M64.39,28.7a4.09,4.09,0,0,0,1.56,0,2.4,2.4,0,0,0,.73-.28,3.34,3.34,0,0,0,.66-.45,3.41,3.41,0,0,0,.83-1.31c.09-.25.18-.5.26-.75s.09-.25.12-.38a1.33,1.33,0,0,0,0-.19c0-.06,0-.16,0-.09h0a.08.08,0,0,1,0,0s.06,0,.06,0a.17.17,0,0,1,0,.1,1.23,1.23,0,0,1,0,.2c0,.14-.05.27-.08.4a5.23,5.23,0,0,1-.23.77A2.74,2.74,0,0,1,67.39,28c-.22.16-.45.29-.68.43a3.1,3.1,0,0,1-.73.36,2.65,2.65,0,0,1-1.6-.12Z"/><path class="cls-1" d="M65.08,22.3a20.52,20.52,0,0,0,2.33-5.07c.44-2.08-.36-2.91-.36-2.91a3.46,3.46,0,0,0-4.22-1.1,4.36,4.36,0,0,0-1.86,3s-3.34-1.66-4.81.55c0,0-2.65,3.46,3.33,5.85,0,0,3.26.76,4.76.28A3.28,3.28,0,0,0,65.08,22.3Z"/><path class="cls-1" d="M65.11,22.51a2.41,2.41,0,0,0,.48.48s0,.32-.94.76c0,0-.12,0-.18-.32a.78.78,0,0,0-.16-.31A2.63,2.63,0,0,0,65.11,22.51Z"/><path class="cls-1" d="M64.18,22.93a3.27,3.27,0,0,0,.85-.59s.18,0,.1.16-.41.6-.87.65C64.26,23.15,64,23.1,64.18,22.93Z"/><path class="cls-1" d="M68.55,26.89a4.52,4.52,0,0,0,4.56-1.49c1.7-2.26.79-3.94.79-3.94s-.33-2.24-3.32-2.87-4.24,2.24-4.43,3.31A4.16,4.16,0,0,0,68,26.62l-.28.51a1.13,1.13,0,0,0,.65.23S68.45,27,68.55,26.89Z"/><circle class="cls-1" cx="67.57" cy="20.9" r="0.35"/><path class="cls-1" d="M69.35,19.47A.35.35,0,0,0,69,19.1a.41.41,0,0,0-.24.08h0a3.54,3.54,0,0,0-.92.77h0a.34.34,0,0,0-.13.25.35.35,0,0,0,.34.37.38.38,0,0,0,.23-.08h0l.09-.1a3.84,3.84,0,0,1,.73-.61l.1-.05h0A.32.32,0,0,0,69.35,19.47Z"/><circle class="cls-1" cx="56.59" cy="19.45" r="0.33"/><path class="cls-1" d="M57.72,17.65a.33.33,0,0,0-.41-.22.32.32,0,0,0-.18.14h0a3.37,3.37,0,0,0-.58,1h0a.34.34,0,0,0,0,.26.32.32,0,0,0,.4.22.3.3,0,0,0,.19-.14h0a.36.36,0,0,0,0-.11,3.17,3.17,0,0,1,.47-.76l.06-.08h0A.32.32,0,0,0,57.72,17.65Z"/><circle class="cls-1" cx="62.45" cy="15.8" r="0.39"/><path class="cls-1" d="M64.16,13.88a.39.39,0,0,0-.44-.34.41.41,0,0,0-.25.13h0a3.86,3.86,0,0,0-.88,1h0a.35.35,0,0,0-.09.3.39.39,0,0,0,.44.34.36.36,0,0,0,.24-.13h0a.35.35,0,0,0,.08-.13,3.9,3.9,0,0,1,.7-.81l.1-.07h0A.46.46,0,0,0,64.16,13.88Z"/><path class="cls-1" d="M68,26.57a2,2,0,0,0,.64.32s.06.12-.06.12-.51-.05-.69-.32C67.86,26.69,67.82,26.54,68,26.57Z"/><path class="cls-1" d="M66.15,10.81c0-2.74.27-5.25,1.94-7.36a5.52,5.52,0,0,1,8.16,0A3.23,3.23,0,0,1,75.9,8a9.61,9.61,0,0,1-5.45,2.34C69.07,10.6,67.66,10.66,66.15,10.81Zm3.15-.71a7,7,0,0,0,4-1.3A2,2,0,0,0,73,5.26a3.15,3.15,0,0,0-4.65,1.42,10,10,0,0,0-.57,2.24C67.6,10.17,67.64,10.18,69.3,10.1Z"/><path class="cls-1" d="M65,10.72c-2.1-.09-4.15-.18-6-1.37A2.38,2.38,0,0,1,57.74,7,2.52,2.52,0,0,1,59.44,5a3.58,3.58,0,0,1,4.89,1.87A7.52,7.52,0,0,1,65,10.72Zm-.77-.38a15.85,15.85,0,0,0-.76-2.56A2,2,0,0,0,60.53,7a1.42,1.42,0,0,0-.25,2.53A5.74,5.74,0,0,0,64.18,10.34Z"/><path class="cls-1" d="M72.53,10.68c2.35-.72,4.57-1.59,6.11-3.76l1,2A13.17,13.17,0,0,1,72.53,10.68Z"/><path class="cls-1" d="M53.14,12.2l-.34-2.1a12,12,0,0,1,7.25.51,19.57,19.57,0,0,0-2.3,0,11.13,11.13,0,0,0-2.42.53A20.52,20.52,0,0,0,53.14,12.2Z"/></svg>