<svg id="Layer_1" data-name="Layer 1" xmlns="http://www.w3.org/2000/svg" viewBox="0 0 95.88 45.83"><defs><style>.cls-1{fill:#cccccc;}</style></defs><title>Mesa de trabajo 23</title><path class="cls-1" d="M.78,40.82a39.5,39.5,0,0,1,.11-7.7s.43.68.74.53c0,0-.29-1.45-.56-1.52,0,0,.87-6.42,1.13-7.18,0,0,.5,1.39,1.26,1.42a9.26,9.26,0,0,0-.74-2.17.39.39,0,0,0-.15-.14c-.42-.16,2.64-8.2,2.87-8.35,0,0,.54.94,1.08.84,0,0-.55-1.55-.78-1.63s2.2-4.72,2.2-4.72l.93.18L8.36,9.2S13,.7,14.17.15Z"/><path class="cls-1" d="M1.41,41.54a24.45,24.45,0,0,0,6.46-7,32.42,32.42,0,0,0,3.78-9.34s-2.23,1.66-3.27,1.43c0,0,3.22-1.6,3.42-2.25,0,0,2.42-12.16,2-12.35A5.83,5.83,0,0,1,12,13a12.13,12.13,0,0,1,1.73-2S14.34.14,14,0L1.14,41.25Z"/><path class="cls-1" d="M0,44.94A18.32,18.32,0,0,1,3.3,40.63s-1,.59-1.29.3c0,0,3.38-13.55,5-17.88l6.2-20.17-6.35,18s-5.6,16.92-6,19.55c0,0-.29.28-.47-.2A33.64,33.64,0,0,0,0,44.94Z"/><path class="cls-1" d="M.32,45.83S8.46,40.34,22,40c0,0,15.45-1.18,37.64,2.92C59.67,42.91,20.46,35.88.32,45.83Z"/><path class="cls-1" d="M16.91,26.16l1.19-8.32h.13l3.38,6.83L25,17.84h.13l1.2,8.32h-.82l-.82-5.95-2.94,5.95H21.5l-3-6-.82,6Z"/><path class="cls-1" d="M33.93,20v6.15h-.78V25.1A3.2,3.2,0,0,1,32,26a2.91,2.91,0,0,1-1.35.31,3,3,0,0,1-2.23-.95,3.16,3.16,0,0,1-.93-2.3,3.1,3.1,0,0,1,.94-2.28,3,3,0,0,1,2.24-.94,2.94,2.94,0,0,1,1.37.32,3.19,3.19,0,0,1,1.08,1V20Zm-3.16.6a2.35,2.35,0,0,0-1.22.33,2.29,2.29,0,0,0-.89.91,2.5,2.5,0,0,0-.33,1.24,2.54,2.54,0,0,0,.33,1.25,2.46,2.46,0,0,0,.89.92,2.37,2.37,0,0,0,1.21.33A2.47,2.47,0,0,0,32,25.26a2.31,2.31,0,0,0,.9-.88,2.56,2.56,0,0,0,.31-1.26,2.44,2.44,0,0,0-.7-1.79A2.33,2.33,0,0,0,30.77,20.61Z"/><path class="cls-1" d="M35.41,20h.81v.9a2.82,2.82,0,0,1,.77-.8,1.5,1.5,0,0,1,.83-.26,1.41,1.41,0,0,1,.7.21l-.41.66a1.06,1.06,0,0,0-.42-.1,1.16,1.16,0,0,0-.76.32,2.08,2.08,0,0,0-.56,1,9.51,9.51,0,0,0-.15,2.13v2.08h-.81Z"/><path class="cls-1" d="M39.08,17.63h.79v8.53h-.79Z"/><path class="cls-1" d="M46.7,24.12l.67.35a3.73,3.73,0,0,1-.76,1,3,3,0,0,1-1,.6,3.36,3.36,0,0,1-1.22.21,2.92,2.92,0,0,1-2.35-1A3.37,3.37,0,0,1,41.94,21a2.94,2.94,0,0,1,2.44-1.16A3,3,0,0,1,46.89,21a3.33,3.33,0,0,1,.68,2.11H42a2.51,2.51,0,0,0,.69,1.75,2.16,2.16,0,0,0,1.63.69,2.62,2.62,0,0,0,.92-.16A2.4,2.4,0,0,0,46,25,3.59,3.59,0,0,0,46.7,24.12Zm0-1.66a2.71,2.71,0,0,0-.46-1,2.24,2.24,0,0,0-.8-.61,2.43,2.43,0,0,0-1-.23,2.24,2.24,0,0,0-1.56.58,2.6,2.6,0,0,0-.72,1.27Z"/><path class="cls-1" d="M49.05,20h.79v1.1a3.33,3.33,0,0,1,1-.95,2.56,2.56,0,0,1,1.26-.31,2.21,2.21,0,0,1,1.22.35,2.07,2.07,0,0,1,.79.94A5,5,0,0,1,54.41,23v3.17h-.79V23.23a7,7,0,0,0-.09-1.42,1.52,1.52,0,0,0-.52-.92,1.57,1.57,0,0,0-1-.31,2,2,0,0,0-1.29.47A2.23,2.23,0,0,0,50,22.23a8.67,8.67,0,0,0-.11,1.67v2.26h-.79Z"/><path class="cls-1" d="M61.29,24.12l.67.35a3.55,3.55,0,0,1-.76,1,3,3,0,0,1-1,.6,3.3,3.3,0,0,1-1.21.21,2.94,2.94,0,0,1-2.36-1A3.37,3.37,0,0,1,56.53,21,3,3,0,0,1,59,19.85,3,3,0,0,1,61.48,21a3.28,3.28,0,0,1,.68,2.11H56.63a2.46,2.46,0,0,0,.68,1.75,2.18,2.18,0,0,0,1.64.69,2.57,2.57,0,0,0,.91-.16,2.45,2.45,0,0,0,.76-.44A3.6,3.6,0,0,0,61.29,24.12Zm0-1.66a2.56,2.56,0,0,0-.46-1,2.16,2.16,0,0,0-.8-.61A2.37,2.37,0,0,0,59,20.61a2.27,2.27,0,0,0-1.56.58,2.76,2.76,0,0,0-.72,1.27Z"/><path class="cls-1" d="M67,26.16V17.84h.18l5.54,6.38V17.84h.82v8.32h-.19l-5.49-6.3v6.3Z"/><path class="cls-1" d="M81.55,20v6.15h-.78V25.1a3.29,3.29,0,0,1-1.12.91,2.91,2.91,0,0,1-1.35.31,3,3,0,0,1-2.24-.95,3.19,3.19,0,0,1-.92-2.3,3.13,3.13,0,0,1,.93-2.28,3,3,0,0,1,2.25-.94,3,3,0,0,1,1.37.32,3.19,3.19,0,0,1,1.08,1V20Zm-3.17.6a2.41,2.41,0,0,0-2.11,1.24,2.5,2.5,0,0,0-.33,1.24,2.59,2.59,0,0,0,1.23,2.17,2.37,2.37,0,0,0,1.21.33,2.47,2.47,0,0,0,1.23-.33,2.22,2.22,0,0,0,.89-.88,2.56,2.56,0,0,0,.32-1.26,2.48,2.48,0,0,0-.7-1.79A2.34,2.34,0,0,0,78.38,20.61Z"/><path class="cls-1" d="M82.75,20h.84l2.07,4.48,2-4.48h.84l-2.81,6.15h-.15Z"/><path class="cls-1" d="M95.88,20v6.15H95.1V25.1A3.2,3.2,0,0,1,94,26a2.91,2.91,0,0,1-1.35.31,3,3,0,0,1-2.23-.95,3.16,3.16,0,0,1-.93-2.3,3.1,3.1,0,0,1,.94-2.28,3,3,0,0,1,2.24-.94,2.94,2.94,0,0,1,1.37.32,3.19,3.19,0,0,1,1.08,1V20Zm-3.16.6a2.35,2.35,0,0,0-1.22.33,2.29,2.29,0,0,0-.89.91,2.5,2.5,0,0,0-.33,1.24,2.54,2.54,0,0,0,.33,1.25,2.46,2.46,0,0,0,.89.92,2.37,2.37,0,0,0,1.21.33,2.47,2.47,0,0,0,1.23-.33,2.31,2.31,0,0,0,.9-.88,2.56,2.56,0,0,0,.31-1.26,2.44,2.44,0,0,0-.7-1.79A2.33,2.33,0,0,0,92.72,20.61Z"/><path class="cls-1" d="M21.92,29.33,20.68,33h-.41l-1.08-3.14L18.11,33h-.4l-1.24-3.68h.4l1.06,3.17L19,29.33h.36l1.08,3.18,1.08-3.18Z"/><path class="cls-1" d="M25.57,33l-.84-1.18-.29,0h-1V33h-.39V29.33h1.38a1.7,1.7,0,0,1,1.1.34,1.12,1.12,0,0,1,.4.92,1.15,1.15,0,0,1-.84,1.16L26,33Zm-.31-1.74a.83.83,0,0,0,.29-.68.85.85,0,0,0-.29-.68,1.28,1.28,0,0,0-.84-.24h-1v1.84h1A1.28,1.28,0,0,0,25.26,31.27Z"/><path class="cls-1" d="M27.28,29.33h.39V33h-.39Z"/><path class="cls-1" d="M30,29.67H28.72v-.34h3v.34H30.4V33H30Z"/><path class="cls-1" d="M32.74,29.33h.39V33h-.39Z"/><path class="cls-1" d="M37.83,29.33V33h-.32l-2.37-3v3h-.39V29.33h.32l2.37,3v-3Z"/><path class="cls-1" d="M42,31.17h.38v1.41a1.82,1.82,0,0,1-.61.34,2.3,2.3,0,0,1-.74.12,2.08,2.08,0,0,1-1-.24,1.78,1.78,0,0,1-.69-.67,1.81,1.81,0,0,1-.25-1,1.81,1.81,0,0,1,.94-1.63,2.08,2.08,0,0,1,1-.24,2.11,2.11,0,0,1,.77.14,1.56,1.56,0,0,1,.6.39l-.24.25a1.5,1.5,0,0,0-1.11-.43,1.57,1.57,0,0,0-.81.2,1.39,1.39,0,0,0-.56.54,1.52,1.52,0,0,0-.21.78,1.52,1.52,0,0,0,.77,1.33,1.64,1.64,0,0,0,.8.2,1.59,1.59,0,0,0,1-.29Z"/><path class="cls-1" d="M46.36,32.8a1.71,1.71,0,0,1-.69-.67,1.81,1.81,0,0,1-.25-1,1.81,1.81,0,0,1,.94-1.63,2,2,0,0,1,1-.24,2,2,0,0,1,.75.14,1.44,1.44,0,0,1,.59.4l-.24.24a1.47,1.47,0,0,0-1.09-.43,1.67,1.67,0,0,0-.8.2,1.43,1.43,0,0,0-.55.54,1.52,1.52,0,0,0-.21.78A1.47,1.47,0,0,0,46,32a1.53,1.53,0,0,0,.55.55,1.67,1.67,0,0,0,.8.2,1.48,1.48,0,0,0,1.09-.44l.24.24a1.44,1.44,0,0,1-.59.4,1.87,1.87,0,0,1-.76.14A2,2,0,0,1,46.36,32.8Z"/><path class="cls-1" d="M50.49,32.8a1.81,1.81,0,0,1-.7-.67,2,2,0,0,1,0-1.91,1.74,1.74,0,0,1,.7-.67,1.92,1.92,0,0,1,1-.25,2,2,0,0,1,1,.24,1.81,1.81,0,0,1,.7.67,2,2,0,0,1,.25,1,1.91,1.91,0,0,1-.25,1,1.74,1.74,0,0,1-.7.67,2.14,2.14,0,0,1-2,0Zm1.78-.3a1.39,1.39,0,0,0,.55-.55,1.56,1.56,0,0,0,.2-.78,1.62,1.62,0,0,0-.2-.78,1.43,1.43,0,0,0-.55-.54,1.52,1.52,0,0,0-.79-.2,1.5,1.5,0,0,0-.79.2,1.45,1.45,0,0,0-.56.54,1.62,1.62,0,0,0-.2.78,1.56,1.56,0,0,0,.2.78,1.41,1.41,0,0,0,.56.55,1.6,1.6,0,0,0,.79.2A1.63,1.63,0,0,0,52.27,32.5Z"/><path class="cls-1" d="M57,32H54.91l-.44,1h-.4l1.68-3.68h.38L57.81,33H57.4Zm-.14-.32-.88-2-.89,2Z"/><path class="cls-1" d="M59.41,32.8a1.78,1.78,0,0,1-.69-.67,1.81,1.81,0,0,1-.25-1,1.81,1.81,0,0,1,.94-1.63,2.07,2.07,0,0,1,1-.24,2.1,2.1,0,0,1,.76.14,1.59,1.59,0,0,1,.59.4l-.25.24a1.47,1.47,0,0,0-1.09-.43,1.6,1.6,0,0,0-.79.2,1.39,1.39,0,0,0-.56.54,1.52,1.52,0,0,0-.21.78,1.52,1.52,0,0,0,.77,1.33,1.6,1.6,0,0,0,.79.2,1.48,1.48,0,0,0,1.09-.44l.25.24a1.55,1.55,0,0,1-.6.4,1.87,1.87,0,0,1-.76.14A2,2,0,0,1,59.41,32.8Z"/><path class="cls-1" d="M66.08,29.33V33h-.39v-1.7h-2.3V33H63V29.33h.39V31h2.3V29.33Z"/></svg>