<svg id="Layer_1" data-name="Layer 1" xmlns="http://www.w3.org/2000/svg" viewBox="0 0 96.72 28.41"><defs><style>.cls-1{fill:#cccccc;}</style></defs><title>Mesa de trabajo 19</title><path class="cls-1" d="M0,24.64,13.52,5.42V5.26H1.27V0h20.6V3.68l-13.23,19v.16H22.08v5.25H0Z"/><path class="cls-1" d="M79.48,20.85l-2,7.21H70.8L79.48,0h8.43l8.81,28.06H89.81l-2.2-7.21Zm7.21-4.74-1.77-5.95c-.51-1.67-1-3.75-1.44-5.42H83.4c-.42,1.67-.84,3.79-1.31,5.42l-1.68,5.95Z"/><rect class="cls-1" x="37.96" y="6.21" width="4.99" height="5.1"/><rect class="cls-1" x="24.86" y="6.21" width="5.02" height="5.1"/><path class="cls-1" d="M37.8,20.68c-.43,2.54-1.77,3.78-3.91,3.78s-3.41-1.29-3.84-3.78H25c.67,5.35,3.8,7.73,8.72,7.73,5.1,0,8.38-2.51,9.08-7.73Z"/><path class="cls-1" d="M24.91,13.44v3.77H27.2v.86H23.88V13.44Z"/><path class="cls-1" d="M30.9,13.44l1.76,4.63H31.59l-.36-1H29.48l-.37,1h-1l1.77-4.63ZM31,16.28l-.59-1.7h0l-.61,1.7Z"/><path class="cls-1" d="M39.91,18.07l-.79-3.15h0l-.78,3.15h-1L36,13.44h1l.74,3.15h0l.81-3.15h1l.8,3.19h0l.77-3.19h1l-1.26,4.63Z"/><path class="cls-1" d="M47,13.44v.86H44.49v1h2.28v.79H44.49v1.13H47v.86H43.46V13.44Z"/><path class="cls-1" d="M50.72,13.44a2.93,2.93,0,0,1,.61.06,1.33,1.33,0,0,1,.47.19.92.92,0,0,1,.3.35,1.15,1.15,0,0,1,.11.55,1,1,0,0,1-.16.58,1.13,1.13,0,0,1-.47.38,1.15,1.15,0,0,1,.64.43,1.32,1.32,0,0,1,.21.75,1.26,1.26,0,0,1-.13.6,1.25,1.25,0,0,1-.37.42,1.65,1.65,0,0,1-.54.24,2.43,2.43,0,0,1-.61.08H48.51V13.44Zm-.14,1.87a.74.74,0,0,0,.46-.13.46.46,0,0,0,.17-.42.63.63,0,0,0-.05-.26.52.52,0,0,0-.16-.17,1.23,1.23,0,0,0-.23-.08l-.26,0h-1v1.08Zm.06,2a1.36,1.36,0,0,0,.29,0,.64.64,0,0,0,.24-.1.58.58,0,0,0,.17-.18.67.67,0,0,0,.06-.3.58.58,0,0,0-.2-.51.87.87,0,0,0-.54-.15H49.54v1.27Z"/><path class="cls-1" d="M58.56,13.44a2.57,2.57,0,0,1,.85.14,1.88,1.88,0,0,1,.67.43,2.05,2.05,0,0,1,.45.71,2.82,2.82,0,0,1,.16,1,3.08,3.08,0,0,1-.13.93,2,2,0,0,1-.4.74,1.9,1.9,0,0,1-.66.49,2.28,2.28,0,0,1-.94.18h-2V13.44Zm-.07,3.77a1.25,1.25,0,0,0,.43-.07,1,1,0,0,0,.38-.24,1.08,1.08,0,0,0,.26-.43,1.74,1.74,0,0,0,.1-.65,2.48,2.48,0,0,0-.07-.63,1.08,1.08,0,0,0-.23-.48A1,1,0,0,0,59,14.4a1.72,1.72,0,0,0-.64-.1h-.74v2.91Z"/><path class="cls-1" d="M65.7,13.44v.86H63.23v1H65.5v.79H63.23v1.13h2.53v.86H62.2V13.44Z"/><path class="cls-1" d="M68.28,13.44v3.77h2.28v.86H67.25V13.44Z"/><rect class="cls-1" x="46.94" y="6.21" width="5.02" height="5.1"/><polygon class="cls-1" points="51.96 20.68 46.94 20.68 46.94 28.06 60.76 28.06 60.76 23.91 51.96 23.91 51.96 20.68"/><rect class="cls-1" x="63.38" y="20.68" width="5.02" height="7.38"/><rect class="cls-1" x="63.38" y="6.21" width="5.02" height="5.1"/></svg>