<svg id="Layer_1" data-name="Layer 1" xmlns="http://www.w3.org/2000/svg" viewBox="0 0 286.03 178"><defs><style>.cls-1{fill:#333;}.cls-2{fill:#09c;}</style></defs><title>Mesa de trabajo 4</title><path class="cls-1" d="M270.84,0h0A15.19,15.19,0,0,0,255.65,15.2V58.68a15.19,15.19,0,0,0,30.38,0V15.2A15.19,15.19,0,0,0,270.84,0"/><path class="cls-1" d="M135.6,102.25a1.36,1.36,0,0,0,.24.13,15.21,15.21,0,0,0,14.39,0,8.1,8.1,0,0,0,.88-.52L278.43,28.36A15.19,15.19,0,1,0,263.24,2.05L135.78,75.65a15.18,15.18,0,0,0-.18,26.6"/><path class="cls-1" d="M127.76,89a15.21,15.21,0,0,1,22.43-13.37l128.24,74A15.19,15.19,0,1,1,263.24,176l-127.46-73.6-.24-.13A15.14,15.14,0,0,1,127.76,89"/><path class="cls-2" d="M158.26,89a15.21,15.21,0,0,1-22.42,13.37L7.6,28.35A15.19,15.19,0,1,1,22.78,2l127.47,73.6.24.13A15.13,15.13,0,0,1,158.26,89"/><path class="cls-2" d="M15.19,177.87h0a15.2,15.2,0,0,0,15.19-15.19V119.19a15.19,15.19,0,0,0-30.38,0v43.49a15.19,15.19,0,0,0,15.19,15.19"/><path class="cls-2" d="M150.42,75.62l-.23-.13a15.24,15.24,0,0,0-14.39,0,10,10,0,0,0-.88.51L7.6,149.52a15.18,15.18,0,1,0,15.18,26.3l127.47-73.59a15.19,15.19,0,0,0,.17-26.61"/></svg>